<svg xmlns="http://www.w3.org/2000/svg" viewBox="0 0 256 256">
<defs>
<clipPath id="clipPath3613">
<rect width="84" x="6" y="6" rx="6" height="84" style="fill:#fff"/>
</clipPath>
<filter width="1.384" x="-.192" y="-.192" height="1.384" style="color-interpolation-filters:sRGB" id="filter3794">
<feGaussianBlur stdDeviation="5.28"/>
</filter>
<linearGradient gradientTransform="translate(0 -97)" id="linearGradient3721" xlink:href="#ButtonShadow-0" y1="6.132" y2="90.239" x2="0" gradientUnits="userSpaceOnUse"/>
<linearGradient id="linearGradient3617" xlink:href="#linearGradient3614" y1="90" y2="5.988" x2="0" gradientUnits="userSpaceOnUse"/>
<linearGradient gradientTransform="matrix(1.02381 0 0 1.0119 -1.14286 -98.07143)" id="linearGradient3780" xlink:href="#ButtonShadow-0" y1="6.132" y2="90.239" x2="0" gradientUnits="userSpaceOnUse"/>
<linearGradient gradientTransform="matrix(1.00587 0 0 .99417 100 0)" id="ButtonShadow-0" y1="92.54" y2="7.017" x2="0" gradientUnits="userSpaceOnUse">
<stop offset="0"/>
<stop offset="1" style="stop-opacity:.588"/>
</linearGradient>
<linearGradient gradientTransform="matrix(.92114 0 0 .92114 3.29301 3.56639)" id="linearGradient4396" xlink:href="#linearGradient3731" y1="87.159" y2="9.591" x2="0" gradientUnits="userSpaceOnUse"/>
<linearGradient id="linearGradient3731">
<stop offset="0" style="stop-color:#dcdcdc"/>
<stop offset=".307" style="stop-color:#ebebeb"/>
<stop offset=".707" style="stop-color:#fff"/>
<stop offset=".845" style="stop-color:#fafafa"/>
<stop offset="1" style="stop-color:#f0f0f0"/>
</linearGradient>
<linearGradient id="linearGradient3737">
<stop offset="0" style="stop-color:#fff"/>
<stop offset="1" style="stop-color:#fff;stop-opacity:0"/>
</linearGradient>
<linearGradient id="linearGradient3614">
<stop offset="0" style="stop-color:#65a31b"/>
<stop offset="1" style="stop-color:#a0de42"/>
</linearGradient>
<linearGradient id="linearGradient3188" xlink:href="#linearGradient3737" y1="6" y2="63.893" x2="0" gradientUnits="userSpaceOnUse"/>
<linearGradient id="linearGradient3613" xlink:href="#linearGradient3737" y1="20.221" y2="138.661" x2="0" gradientUnits="userSpaceOnUse"/>
<radialGradient cx="48" cy="90.172" gradientTransform="matrix(1.15731 0 0 .99591 -7.55102 .19713)" r="42" id="radialGradient3619" xlink:href="#linearGradient3737" gradientUnits="userSpaceOnUse"/>
</defs>
<g transform="matrix(2.66666 0 0 2.66666 .00032 -3.99967)">
<path style="opacity:.08;fill:url(#linearGradient3780)" d="m 12,-95.03125 c -5.5110903,0 -10.03125,4.52016 -10.03125,10.03125 l 0,71 c 0,5.5110902 4.5201598,10.03125 10.03125,10.03125 l 72,0 c 5.51109,0 10.03125,-4.5201597 10.03125,-10.03125 l 0,-71 c 0,-5.51109 -4.52016,-10.03125 -10.03125,-10.03125 l -72,0 z" transform="scale(1 -1)"/>
<path style="opacity:.1;fill:url(#linearGradient3780)" d="m 12,-94.03125 c -4.971633,0 -9.03125,4.059617 -9.03125,9.03125 l 0,71 c 0,4.9716329 4.0596171,9.03125 9.03125,9.03125 l 72,0 c 4.971633,0 9.03125,-4.059617 9.03125,-9.03125 l 0,-71 c 0,-4.971633 -4.059617,-9.03125 -9.03125,-9.03125 l -72,0 z" transform="scale(1 -1)"/>
<path style="opacity:.2;fill:url(#linearGradient3780)" d="m 12,-93 c -4.4091333,0 -8,3.590867 -8,8 l 0,71 c 0,4.4091333 3.5908667,8 8,8 l 72,0 c 4.409133,0 8,-3.5908667 8,-8 l 0,-71 c 0,-4.409133 -3.590867,-8 -8,-8 l -72,0 z" transform="scale(1 -1)"/>
<rect width="86" x="5" y="-92" rx="7" height="85" style="opacity:.3;fill:url(#linearGradient3780)" transform="scale(1 -1)"/>
<rect width="84" x="6" y="-91" rx="6" height="84" style="opacity:.45;fill:url(#linearGradient3721)" transform="scale(1 -1)"/>
</g>
<g transform="matrix(2.66666 0 0 2.66666 .00032 -3.99967)">
<rect width="84" x="6" y="6" rx="6" height="84" style="fill:url(#linearGradient3617)"/>
<path style="opacity:.4;fill:url(#linearGradient3188)" d="M 12,6 C 8.676,6 6,8.676 6,12 l 0,2 0,68 0,2 c 0,0.334721 0.04135,0.6507 0.09375,0.96875 0.0487,0.295596 0.09704,0.596915 0.1875,0.875 0.00988,0.03038 0.020892,0.0636 0.03125,0.09375 0.098865,0.287771 0.2348802,0.547452 0.375,0.8125 0.1445918,0.273507 0.3156161,0.535615 0.5,0.78125 0.1843839,0.245635 0.3737765,0.473472 0.59375,0.6875 0.439947,0.428056 0.94291,0.814526 1.5,1.09375 0.278545,0.139612 0.5734731,0.246947 0.875,0.34375 -0.2562018,-0.100222 -0.4867109,-0.236272 -0.71875,-0.375 -0.00741,-0.0044 -0.023866,0.0045 -0.03125,0 -0.031933,-0.0193 -0.062293,-0.04251 -0.09375,-0.0625 -0.120395,-0.0767 -0.2310226,-0.163513 -0.34375,-0.25 -0.1061728,-0.0808 -0.2132809,-0.161112 -0.3125,-0.25 C 8.4783201,88.557317 8.3087904,88.373362 8.15625,88.1875 8.0486711,88.057245 7.9378561,87.922215 7.84375,87.78125 7.818661,87.74287 7.805304,87.69538 7.78125,87.65625 7.716487,87.553218 7.6510225,87.451733 7.59375,87.34375 7.4927417,87.149044 7.3880752,86.928049 7.3125,86.71875 7.30454,86.69694 7.288911,86.6782 7.28125,86.65625 7.2494249,86.5643 7.2454455,86.469419 7.21875,86.375 7.1884177,86.268382 7.1483606,86.171969 7.125,86.0625 7.0521214,85.720988 7,85.364295 7,85 L 7,83 7,15 7,13 C 7,10.218152 9.2181517,8 12,8 l 2,0 68,0 2,0 c 2.781848,0 5,2.218152 5,5 l 0,2 0,68 0,2 c 0,0.364295 -0.05212,0.720988 -0.125,1.0625 -0.04415,0.206893 -0.08838,0.397658 -0.15625,0.59375 -0.0077,0.02195 -0.0233,0.04069 -0.03125,0.0625 -0.06274,0.173739 -0.138383,0.367449 -0.21875,0.53125 -0.04158,0.0828 -0.07904,0.169954 -0.125,0.25 -0.0546,0.09721 -0.126774,0.18835 -0.1875,0.28125 -0.09411,0.140965 -0.204921,0.275995 -0.3125,0.40625 -0.143174,0.17445 -0.303141,0.346998 -0.46875,0.5 -0.01117,0.0102 -0.01998,0.02115 -0.03125,0.03125 -0.138386,0.125556 -0.285091,0.234436 -0.4375,0.34375 -0.102571,0.07315 -0.204318,0.153364 -0.3125,0.21875 -0.0074,0.0045 -0.02384,-0.0044 -0.03125,0 -0.232039,0.138728 -0.462548,0.274778 -0.71875,0.375 0.301527,-0.0968 0.596455,-0.204138 0.875,-0.34375 0.55709,-0.279224 1.060053,-0.665694 1.5,-1.09375 0.219973,-0.214028 0.409366,-0.441865 0.59375,-0.6875 0.184384,-0.245635 0.355408,-0.507743 0.5,-0.78125 0.14012,-0.265048 0.276135,-0.524729 0.375,-0.8125 0.01041,-0.03078 0.02133,-0.06274 0.03125,-0.09375 0.09046,-0.278085 0.1388,-0.579404 0.1875,-0.875 C 89.95865,84.6507 90,84.334721 90,84 l 0,-2 0,-68 0,-2 C 90,8.676 87.324,6 84,6 L 12,6 z"/>
<path style="opacity:.2;fill:url(#radialGradient3619)" d="M 12,90 C 8.676,90 6,87.324 6,84 L 6,82 6,14 6,12 c 0,-0.334721 0.04135,-0.6507 0.09375,-0.96875 0.0487,-0.295596 0.09704,-0.596915 0.1875,-0.875 C 6.29113,10.12587 6.302142,10.09265 6.3125,10.0625 6.411365,9.774729 6.5473802,9.515048 6.6875,9.25 6.8320918,8.976493 7.0031161,8.714385 7.1875,8.46875 7.3718839,8.223115 7.5612765,7.995278 7.78125,7.78125 8.221197,7.353194 8.72416,6.966724 9.28125,6.6875 9.559795,6.547888 9.8547231,6.440553 10.15625,6.34375 9.9000482,6.443972 9.6695391,6.580022 9.4375,6.71875 c -0.00741,0.0044 -0.023866,-0.0045 -0.03125,0 -0.031933,0.0193 -0.062293,0.04251 -0.09375,0.0625 -0.120395,0.0767 -0.2310226,0.163513 -0.34375,0.25 -0.1061728,0.0808 -0.2132809,0.161112 -0.3125,0.25 C 8.4783201,7.442683 8.3087904,7.626638 8.15625,7.8125 8.0486711,7.942755 7.9378561,8.077785 7.84375,8.21875 7.818661,8.25713 7.805304,8.30462 7.78125,8.34375 7.716487,8.446782 7.6510225,8.548267 7.59375,8.65625 7.4927417,8.850956 7.3880752,9.071951 7.3125,9.28125 7.30454,9.30306 7.288911,9.3218 7.28125,9.34375 7.2494249,9.4357 7.2454455,9.530581 7.21875,9.625 7.1884177,9.731618 7.1483606,9.828031 7.125,9.9375 7.0521214,10.279012 7,10.635705 7,11 l 0,2 0,68 0,2 c 0,2.781848 2.2181517,5 5,5 l 2,0 68,0 2,0 c 2.781848,0 5,-2.218152 5,-5 l 0,-2 0,-68 0,-2 C 89,10.635705 88.94788,10.279012 88.875,9.9375 88.83085,9.730607 88.78662,9.539842 88.71875,9.34375 88.71105,9.3218 88.69545,9.30306 88.6875,9.28125 88.62476,9.107511 88.549117,8.913801 88.46875,8.75 88.42717,8.6672 88.38971,8.580046 88.34375,8.5 88.28915,8.40279 88.216976,8.31165 88.15625,8.21875 88.06214,8.077785 87.951329,7.942755 87.84375,7.8125 87.700576,7.63805 87.540609,7.465502 87.375,7.3125 87.36383,7.3023 87.35502,7.29135 87.34375,7.28125 87.205364,7.155694 87.058659,7.046814 86.90625,6.9375 86.803679,6.86435 86.701932,6.784136 86.59375,6.71875 c -0.0074,-0.0045 -0.02384,0.0044 -0.03125,0 -0.232039,-0.138728 -0.462548,-0.274778 -0.71875,-0.375 0.301527,0.0968 0.596455,0.204138 0.875,0.34375 0.55709,0.279224 1.060053,0.665694 1.5,1.09375 0.219973,0.214028 0.409366,0.441865 0.59375,0.6875 0.184384,0.245635 0.355408,0.507743 0.5,0.78125 0.14012,0.265048 0.276135,0.524729 0.375,0.8125 0.01041,0.03078 0.02133,0.06274 0.03125,0.09375 0.09046,0.278085 0.1388,0.579404 0.1875,0.875 C 89.95865,11.3493 90,11.665279 90,12 l 0,2 0,68 0,2 c 0,3.324 -2.676,6 -6,6 l -72,0 z"/>
</g>
<g transform="matrix(2.66666 0 0 2.66666 .00032 -3.99967)">
<rect width="66" x="15" y="15" rx="12" height="66" style="opacity:.1;fill:url(#linearGradient3613);filter:url(#filter3794);stroke:#fff;stroke-linecap:round;stroke-width:.5;clip-path:url(#clipPath3613)"/>
</g>
<g transform="matrix(2.66666 0 0 2.66666 .00032 -3.99967)">
<path style="opacity:.06" d="m 47.21875,10.90625 c -2.334139,0.143897 -4.850429,0.74541 -6.875,1.65625 -4.839345,2.177195 -8.847965,6.59821 -10.53125,11.625 -0.861976,2.574135 -1.0625,4.793999 -1.0625,11.375 l 0,3 -7.65625,0 c -0.994759,0.01149 -2.143237,0.152247 -2.96875,1 -0.820668,0.842779 -0.894205,1.941659 -0.90625,2.875 l 0,39.28125 c 0,0.990851 0.301295,2.009228 0.90625,2.84375 0.628243,0.866646 1.672981,1.5625 2.96875,1.5625 l 54.5,0 c 1.159396,0.0068 2.106087,-0.610949 2.78125,-1.34375 0.695894,-0.755301 1.225016,-1.816015 1.21875,-3.0625 l 0,-39.28125 c -4.37e-4,-0.64668 0.06004,-1.724332 -0.6875,-2.65625 -0.775804,-0.967151 -2.017559,-1.21875 -3.3125,-1.21875 l -7.75,0 0,-3 c -0.0017,-4.273487 -0.08467,-7.736472 -0.625,-9.8125 -2.182218,-8.384405 -9.099857,-14.124433 -17.75,-14.8125 -0.712183,-0.05665 -1.471954,-0.07922 -2.25,-0.03125 z m 1.1875,9.75 c 0.993469,0.001 1.988583,0.115348 2.625,0.28125 3.121208,0.813639 5.443987,2.699678 6.71875,5.34375 0.858138,1.779949 0.85102,1.713795 0.84375,3.90625 -0.0048,1.48291 -0.05323,1.942736 -0.28125,2.78125 -0.405452,1.490946 -1.7386,4.103897 -3.09375,5.90625 -0.573096,0.762213 -1.506966,1.697578 -2.375,2.59375 -0.0015,-0.07799 0.0096,-0.160635 0,-0.21875 -0.0066,-0.03985 -0.02566,-0.0039 -0.03125,-0.03125 -4.76e-4,-0.01229 4.14e-4,-0.02616 0,-0.03125 -8.27e-4,-0.01018 6.84e-4,-0.02526 0,-0.03125 -0.0027,-0.02394 0.0055,-0.03082 0,-0.0625 -0.01101,-0.06336 -0.0311,-0.175482 -0.0625,-0.28125 -0.0628,-0.211537 -0.156719,-0.500469 -0.40625,-0.75 0,0 -0.05542,-0.0044 -0.09375,-0.03125 0.0057,0.0067 -0.02099,-0.02034 -0.03125,-0.03125 1.41e-4,1.14e-4 -0.01403,-0.01923 -0.03125,-0.03125 -0.0126,-0.01181 -0.01749,-0.02056 -0.03125,-0.03125 -0.05312,-0.04126 -0.107879,-0.06161 -0.21875,-0.125 -0.106157,-0.06069 -0.185272,-0.09774 -0.25,-0.125 -0.0099,-0.0041 -0.02256,-0.02776 -0.03125,-0.03125 -0.01644,-0.0066 -0.0376,0.0082 -0.0625,0 -0.0062,-0.0021 -0.01808,-0.02759 -0.03125,-0.03125 -0.0066,-0.0018 -0.031,5.5e-5 -0.03125,0 -0.01902,-0.0057 -0.04063,0.0058 -0.0625,0 -0.03608,-0.0096 -0.05116,-0.02284 -0.09375,-0.03125 -0.146203,-0.02888 -0.232877,-0.03853 -0.34375,-0.03125 -0.02772,0.0018 -0.05276,0.01269 -0.125,0.03125 -0.0063,2.42e-4 -0.02713,-1.24e-4 -0.03125,0 -0.187712,0.0056 -0.315337,0.02337 -0.40625,0.03125 -0.234893,0.02035 -0.620022,0.03455 -1.0625,0.09375 -3.987509,0.533531 -8.603659,-1.8789 -10.3125,-5.3125 -0.77603,-1.559277 -1.027891,-2.65893 -0.9375,-4.59375 0.110024,-2.355155 0.512979,-3.497896 1.71875,-5.09375 1.213302,-1.605821 3.627616,-3.211661 5.84375,-3.78125 0.643864,-0.165484 1.699969,-0.282275 2.6875,-0.28125 z m -0.0625,33.75 c 1.167421,-0.0024 1.610229,0.149238 2.40625,0.75 2.199228,1.65977 2.238529,4.976393 0.03125,6.40625 -0.02002,0.01297 -0.04211,0.01859 -0.0625,0.03125 a 0.50929876,0.50929876 0 0 0 -0.03125,0.03125 0.50929876,0.50929876 0 0 0 -0.0625,0 l -0.90625,0.5625 a 0.50929876,0.50929876 0 0 0 0,0.03125 0.50929876,0.50929876 0 0 0 -0.03125,0 0.50929876,0.50929876 0 0 0 0,0.03125 0.50929876,0.50929876 0 0 0 -0.0625,0.03125 c -0.008,0.0079 -0.0243,0.02434 -0.03125,0.03125 -0.0035,0.0035 -0.02703,-0.0043 -0.03125,0 -0.0021,0.0021 0.0072,0.02359 0,0.03125 -0.0018,0.0019 0.0066,0.0236 0,0.03125 -0.0066,0.0076 -0.03122,-3.8e-5 -0.03125,0 0,0 0,0.03125 0,0.03125 0,0 -0.03125,0 -0.03125,0 0,0 -0.03125,0.0625 -0.03125,0.0625 -0.0054,-0.0035 -0.03125,-0.03125 -0.03125,-0.03125 -0.0056,0.0056 -0.02331,-0.0079 -0.03125,0 -0.0079,0.0079 0.0057,0.02561 0,0.03125 0,0 -0.0013,0.02974 0,0.03125 0.0012,0.0014 0.02905,-0.0025 0.03125,0 0,0 0.04577,0.06069 0.0625,0.09375 0.0043,0.0084 -0.005,0.02144 0,0.03125 a 0.50929876,0.50929876 0 0 0 0,0.03125 c 0.0084,0.0059 0.02027,0.02358 0.03125,0.03125 0.0449,0.08872 0.0651,0.130894 0.09375,0.1875 -0.02285,0.0042 -0.03419,-0.0052 -0.0625,0 -0.07342,0.01351 -0.08876,0.01883 -0.15625,0.03125 0.07457,0.0019 0.08789,-0.0017 0.15625,0 0.0017,0.0044 0.02963,-0.0041 0.03125,0 a 0.50929876,0.50929876 0 0 0 0.03125,0 0.50929876,0.50929876 0 0 0 0,0.0625 c 0.0036,4.4e-4 0.03125,0 0.03125,0 0,0 0.09094,0.0309 0.15625,0.0625 0.0292,0.04082 0.02899,0.0469 0.0625,0.09375 0.04115,0.05754 0.03844,0.09136 0.0625,0.125 l -0.03125,-0.03125 -0.03125,0 -0.3125,-0.125 0.4375,0.25 c 0,0 0.0068,0.01993 0,0.03125 0,0 -0.02831,0.0012 -0.03125,0 0,0 0.0074,0.02165 0,0.03125 -0.0074,0.0096 0.0049,0.02485 0,0.03125 -0.0025,0.0032 -0.03125,0 -0.03125,0 C 49.87427,63.409452 49.5,63.25 49.5,63.25 c 0,0 -0.200332,-0.08144 -0.34375,-0.125 0.09357,0.01324 0.154494,0.01774 0.25,0.03125 C 49.444485,63.188194 49.5,63.25 49.5,63.25 c 0,0 0.110908,0.03716 0.21875,0.0625 0.04673,0.01098 0.04968,0.0209 0.09375,0.03125 0.07118,0.01673 0.139298,0.02727 0.15625,0.03125 -0.02117,-0.0085 -0.09011,-0.05448 -0.1875,-0.09375 -0.106442,-0.0934 -0.21875,-0.1875 -0.21875,-0.1875 0,0 -0.197023,-0.06136 -0.34375,-0.09375 -0.04848,-0.02897 -0.125,-0.0625 -0.125,-0.0625 0,0 0.04355,0.04667 0.0625,0.0625 -0.0294,-0.0065 -0.09375,-0.03126 -0.09375,-0.03125 -0.004,0.01189 0.0032,0.02164 0,0.03125 -0.0016,0.0048 0.0015,0.02684 0,0.03125 -7.28e-4,0.0022 -0.02944,-0.0057 -0.03125,0 -9.04e-4,0.0029 3e-5,0.03114 0,0.03125 -8e-6,2.8e-5 0.0031,0.01616 0,0.03125 -0.003,-9.03e-4 -0.03125,-3e-6 -0.03125,0 -0.0028,0.0085 0.004,0.01935 0,0.03125 -0.004,0.0119 0.0029,0.02267 0,0.03125 0,0 0.46875,0.1875 0.46875,0.1875 0,0 0.417419,0.111524 0.46875,0.125 0,0 0,0.0625 0,0.0625 a 0.50929876,0.50929876 0 0 0 0,0.03125 c -0.0024,0.0069 0,0.03125 0,0.03125 -0.0052,0.0091 0.0034,0.02516 0,0.03125 0,0 -0.02864,0.0012 -0.03125,0 0,0 0.03125,0.03125 0.03125,0.03125 0,0 0,0.03125 0,0.03125 0,0 0,0.03125 0,0.03125 0,0 -0.02784,-7.41e-4 -0.03125,0 -0.0034,7.41e-4 -0.02487,-0.0014 -0.03125,0 -0.03699,0.01971 -0.257143,0.172608 -0.34375,0.21875 -0.02999,-0.0054 -0.09375,-0.03125 -0.09375,-0.03125 0,0 -0.02427,0.04803 -0.03125,0.0625 -0.03431,-0.005 -0.07797,-0.01995 -0.15625,-0.03125 0.06128,0.03488 0.08252,0.03832 0.125,0.0625 -0.02429,0.05034 -0.02679,0.08224 -0.0625,0.15625 0.04707,-0.06149 0.067,-0.09005 0.09375,-0.125 0.01462,0.0083 0.0625,0.03125 0.0625,0.03125 0,0 0.06847,-0.05321 0.125,-0.09375 0.09552,0.0041 0.154483,0.02712 0.25,0.03125 0.009,0.0016 0.02482,-0.0011 0.03125,0 0.01945,-0.01243 0.05377,-0.02567 0.0625,-0.03125 -0.01192,0.0052 -0.06332,-0.01322 -0.09375,0 -0.05821,-0.01041 -0.0955,-0.0148 -0.1875,-0.03125 l 0.03125,-0.03125 c 0.09363,-0.06713 0.1875,-0.125 0.1875,-0.125 0,0 0.0502,0.01064 0.0625,0.03125 0.0041,0.0069 0,0.03125 0,0.03125 0.0015,0.01362 0,0.03125 0,0.03125 a 0.50929876,0.50929876 0 0 0 0,0.03125 c 1.18e-4,0.01158 0,0.03125 0,0.03125 0,0 0.0019,0.01335 0,0.03125 -0.0019,0.0179 0,0.03125 0,0.03125 0.0037,1.6e-4 0.03125,0 0.03125,0 0.0032,-7.71e-4 0.03125,0 0.03125,0 0.0034,0.007 0,0.03125 0,0.03125 0,0 -0.0058,0.01817 0,0.03125 0.0029,0.0065 0.02835,-0.0065 0.03125,0 0,0 0.0013,0.02941 0,0.03125 0.0057,0.0036 -0.0057,0.02769 0,0.03125 0.01145,0.0071 0.03125,0 0.03125,0 0.0057,0.02062 0,0.0625 0,0.0625 0,0 -8.19e-4,0.01849 0,0.03125 l 0,0.03125 c 0.0011,0.01702 -8.19e-4,0.01849 0,0.03125 a 0.50929876,0.50929876 0 0 0 -0.03125,0 c -0.0067,0.0058 -0.02387,-0.0064 -0.03125,0 l -0.03125,0 -0.03125,0 c -0.01776,0.0085 -0.01284,0.02239 -0.03125,0.03125 -0.01255,0.006 -0.01877,-0.006 -0.03125,0 -0.01248,0.006 -0.01914,-0.0058 -0.03125,0 -0.01893,0.02634 -0.01608,0.04139 -0.03125,0.0625 -0.0055,0.0076 0.0047,0.02466 0,0.03125 0.01196,-0.0079 0.01645,-0.02145 0.03125,-0.03125 0.0148,-0.0098 0.01459,-0.02022 0.03125,-0.03125 0.02028,-0.01343 0.04106,0.0142 0.0625,0 l -0.1875,0.1875 c -0.07294,0.05091 -0.09459,0.05071 -0.15625,0.09375 a 0.50929876,0.50929876 0 0 0 0,0.03125 c -0.02238,0.01562 -0.04513,0.01913 -0.0625,0.03125 -0.04474,0.0888 -0.09375,0.1875 -0.09375,0.1875 -0.0023,0.0024 -0.02999,-0.0013 -0.03125,0 -0.0014,0.0014 -2e-6,0.03125 0,0.03125 0.0057,0.0056 -0.0079,0.02331 0,0.03125 0.0079,0.0079 0.02562,-0.0056 0.03125,0 8.64e-4,8.71e-4 0.03071,-5.39e-4 0.03125,0 0,0 0.07654,-0.03816 0.125,-0.0625 a 0.50929876,0.50929876 0 0 0 0.125,0.3125 c 0.0042,0.0021 0.02334,-0.004 0.03125,0 0.0034,0.0017 0.02728,0.02929 0.03125,0.03125 0.01317,0.0036 0.01869,-0.0034 0.03125,0 a 0.50929876,0.50929876 0 0 0 0.0625,0.03125 0.50929876,0.50929876 0 0 0 0,0.03125 l 0.78125,0.375 c 0.0016,8.85e-4 0.01646,0.02339 0.03125,0.03125 0.0099,0.0052 0.03018,-5.36e-4 0.03125,0 1.1e-5,6e-6 0.01788,0.02595 0.03125,0.03125 0.0312,0.01237 0.09371,0.03124 0.09375,0.03125 0.0073,0.0053 0.02214,-0.0066 0.03125,0 0.02732,0.01989 -0.0034,0.03547 0.03125,0.0625 0.09242,0.07207 0.234024,0.166665 0.375,0.28125 0.307357,0.249819 0.689374,0.56867 1,0.875 1.69342,1.670003 2.062904,2.584543 1.96875,5.125 -0.01246,0.336262 -0.02096,0.597957 -0.03125,0.78125 -0.0051,0.09165 -0.02727,0.170728 -0.03125,0.21875 -0.004,0.04802 -0.01683,0.101612 0,0.03125 0.0033,-0.0066 0.0015,0.02999 0,0.03125 -0.01537,0.01264 -0.06324,0.0383 -0.09375,0.0625 -0.06103,0.04839 -0.138933,0.125101 -0.21875,0.1875 -0.07982,0.0624 -0.161093,0.110421 -0.21875,0.15625 -0.05442,0.0087 -0.207543,0.04477 -0.53125,0.0625 -0.713123,0.03906 -2.047428,0.04998 -4.40625,0.0625 -2.583565,0.01371 -4.070224,0.01276 -4.875,-0.03125 -0.420609,-0.023 -0.655027,-0.04596 -0.75,-0.0625 -0.0393,-0.0068 -0.0468,-0.02597 -0.0625,-0.03125 -0.0093,-0.0091 -0.02042,-0.02014 -0.03125,-0.03125 -0.07736,-0.07932 -0.191495,-0.203084 -0.25,-0.28125 -0.06617,-0.0884 -0.133527,-0.214662 -0.1875,-0.3125 -0.02699,-0.04892 -0.04817,-0.06408 -0.0625,-0.09375 -0.0824,-0.296681 -0.126351,-1.179001 0,-2.0625 0.126319,-0.883279 0.41053,-1.841337 0.75,-2.53125 0.190052,-0.386252 0.645115,-0.981225 1.15625,-1.5 0.511135,-0.518775 1.108824,-0.971639 1.375,-1.09375 0.09432,-0.04327 0.283518,-0.113777 0.53125,-0.21875 0.05675,-0.02405 0.0795,-0.06905 0.125,-0.09375 0.02039,-0.01107 0.04416,-0.02017 0.0625,-0.03125 0.02539,-0.01533 0.07201,-0.0161 0.09375,-0.03125 0.0091,-0.0044 0.02146,-0.0263 0.03125,-0.03125 0.07346,-0.03709 0.18031,-0.07974 0.28125,-0.15625 0.02517,-0.01908 0.05945,-0.09529 0.09375,-0.125 0.0343,-0.02971 0.08481,-0.05238 0.125,-0.09375 0.02839,-0.02072 0.04844,-0.01811 0.0625,-0.03125 0.02813,-0.02628 0.0414,-0.03786 0.0625,-0.0625 0.0061,-0.0077 -0.0061,-0.02325 0,-0.03125 a 0.50929876,0.50929876 0 0 0 0.0625,-0.09375 c 0.06358,-0.08748 0.133129,-0.171223 0.1875,-0.3125 0.0343,-0.08912 0.0666,-0.10043 0.09375,-0.21875 0.0035,-0.01539 0.03119,-0.155884 0.03125,-0.15625 1.14e-4,-7.31e-4 7.2e-5,-0.468061 0,-0.46875 a 0.50929876,0.50929876 0 0 0 0,-0.03125 c 0,0 0.0077,-0.05467 0,-0.09375 -0.0019,-0.0098 -0.02937,0.0094 -0.03125,0 9.6e-5,-0.0075 9.73e-4,-0.01208 0,-0.03125 1.4e-5,1.1e-4 0.0029,-0.0187 0,-0.03125 -3.3e-5,-2.57e-4 -0.02423,-0.0327 -0.03125,-0.0625 -0.003,-0.01277 2.2e-5,-0.03119 0,-0.03125 -0.01154,-0.04025 -0.05262,-0.06224 -0.0625,-0.09375 -0.01765,-0.02537 -0.01359,-0.03714 -0.03125,-0.0625 -0.0067,-0.0097 0.0059,-0.02278 0,-0.03125 -0.0031,-0.0075 0.0035,-0.02361 0,-0.03125 -0.0044,-0.0099 -0.02605,-0.01914 -0.03125,-0.03125 -0.0104,-0.02423 -0.01041,-0.07101 0,-0.03125 -0.0029,-0.01105 -0.04126,-0.07278 -0.0625,-0.125 -0.0099,-0.01151 -0.01306,-0.04563 -0.03125,-0.0625 -0.0447,-0.0753 -0.05134,-0.101818 -0.09375,-0.15625 -0.02398,-0.03078 -0.04339,-0.03888 -0.0625,-0.0625 A 0.50929876,0.50929876 0 0 0 47.15625,62.5 c -0.01256,-0.01528 -0.02282,-0.05243 -0.03125,-0.0625 A 0.50929876,0.50929876 0 0 0 47.09375,62.40625 C 47.082883,62.394958 46.961641,62.254462 46.8125,62.125 46.591228,61.932924 46.354116,61.760904 46.09375,61.59375 44.803175,60.765219 44.052723,58.573799 44.6875,56.875 c 0.186198,-0.498305 0.297362,-0.609871 0.9375,-1.25 1.03473,-1.034738 1.326852,-1.215672 2.71875,-1.21875 z m 1.40625,10.125 c 0,0 0.03607,-0.07509 0.0625,-0.125 -0.0036,0.0051 -0.02812,-0.0044 -0.03125,0 -0.0031,0.0044 -0.02869,-0.0036 -0.03125,0 a 0.50929876,0.50929876 0 0 0 -0.03125,0.0625 c 0,0 -0.02752,-9.9e-5 -0.03125,0 -0.0075,1.98e-4 -0.04311,-5.16e-4 -0.0625,0 -0.0029,0.0058 0.0039,0.02359 0,0.03125 0.01143,0.0021 0.02185,-0.0017 0.03125,0 A 0.50929876,0.50929876 0 0 0 49.625,64.59375 c 0.02172,-0.03208 0.0504,-0.04463 0.0625,-0.0625 0.01284,0.0023 0.0625,0 0.0625,0 z M 49.84375,64 c -0.0622,0.02702 -0.08212,0.0303 -0.15625,0.0625 -0.108723,0.0095 -0.21875,0 -0.21875,0 0,0 -0.05902,0.05631 -0.09375,0.09375 -0.02372,0.0074 -0.03242,0.02189 -0.0625,0.03125 -0.0144,0.02985 -0.01947,0.03808 -0.03125,0.0625 -0.015,0.01618 -0.01692,0.0158 -0.03125,0.03125 -0.0037,0.0077 0.0028,0.02538 0,0.03125 0.03215,-0.02616 0.02924,-0.03543 0.0625,-0.0625 0.0094,-0.0077 0.02217,0.0074 0.03125,0 0.08936,-0.01196 0.1875,-0.03125 0.1875,-0.03125 0,0 0.13056,-0.07993 0.25,-0.15625 0.0175,-0.01118 0.01503,-0.02089 0.03125,-0.03125 0.01355,-0.0032 0.01881,0.003 0.03125,0 0.0059,-0.0037 -0.0055,-0.02776 0,-0.03125 z m -0.3125,0.21875 c 0,0 -0.185526,0.108219 -0.3125,0.1875 0.136059,-0.05652 0.34375,-0.125 0.34375,-0.125 0,0 0.362974,-0.226816 0.40625,-0.25 -0.0484,0.019 -0.4375,0.1875 -0.4375,0.1875 z M 49.3125,64.1875 c -0.09919,0.03087 -0.154138,0.04238 -0.21875,0.0625 -0.0078,-0.0079 -0.02392,0.0074 -0.03125,0 0,0 0,0.03125 0,0.03125 0,0 0.09375,0.09375 0.09375,0.09375 0.0096,-0.0078 0.01837,-0.02077 0.03125,-0.03125 -0.01809,-0.01065 -0.03125,-0.03125 -0.03125,-0.03125 6e-6,6e-6 -0.01951,-0.0194 -0.03125,-0.03125 0.03857,-0.0052 0.06191,-0.0228 0.125,-0.03125 0.02243,-0.02931 0.0361,-0.028 0.0625,-0.0625 z m 0.125,-0.28125 c 0,0 0.388819,-0.16922 0.4375,-0.1875 0.01511,-0.0034 0.0625,-0.03125 0.0625,-0.03125 0,0 -0.0474,-0.02786 -0.0625,-0.03125 C 49.823843,63.638973 49.4375,63.5 49.4375,63.5 c 0,0 -0.08175,0.05284 -0.15625,0.09375 -0.0391,0.0068 -0.04832,-0.0079 -0.09375,0 -0.0061,0.0054 0.0054,0.02648 0,0.03125 -0.0059,0.0052 -0.02628,-0.0044 -0.03125,0 -0.04465,0.0078 -0.05942,-0.006 -0.09375,0 -0.01489,-0.02591 -0.01636,-0.03659 -0.03125,-0.0625 0.06772,-0.01153 0.116783,-0.01389 0.21875,-0.03125 0.0085,-0.0075 0.0226,0.0076 0.03125,0 C 49.348896,63.519736 49.4375,63.5 49.4375,63.5 c 10e-7,1.4e-5 -0.07766,-0.003 -0.125,0 -0.0085,0.0075 -0.0226,-0.0076 -0.03125,0 -0.122951,0.0078 -0.218636,0.02901 -0.28125,0.03125 -0.0032,7.17e-4 -0.03125,0 -0.03125,0 -0.0037,1e-5 -0.03124,2.62e-4 -0.03125,0 -4.4e-5,0.0079 2.7e-5,0.02417 0,0.03125 5e-6,0.0079 2.2e-5,0.01935 0,0.03125 0,0 0.04963,0.0022 0.0625,0 0.0086,0.01865 0.02261,0.0126 0.03125,0.03125 -0.0206,0.0036 -0.05498,0.02994 -0.0625,0.03125 0.01078,0.0013 0.05912,-0.0043 0.09375,0 0.0014,1.78e-4 -0.0015,0.03107 0,0.03125 0.01023,-0.0033 0.0196,0.0037 0.03125,0 0,0 0.0031,-0.02586 0,-0.03125 0.01202,-0.0039 0.01828,0.0042 0.03125,0 -0.0025,0.0022 0.0014,0.03004 0,0.03125 0.02922,0.0036 0.0314,-0.0038 0.0625,0 0.126357,0.01556 0.25,0.03125 0.25,0.03125 0,0 -0.231797,0.0026 -0.375,0 -0.009,0.0049 -0.0274,0.02914 -0.03125,0.03125 -0.0112,-0.0018 -0.0236,-0.03001 -0.03125,-0.03125 -0.001,-0.0029 -0.0299,0.0037 -0.03125,0 -0.003,9.51e-4 -0.03125,0 -0.03125,0 9e-6,0.0045 -1.2e-5,0.02563 0,0.03125 0,0 0,0.03125 0,0.03125 0,0 0.06475,0.02314 0.09375,0.03125 0.122675,0.0343 0.40625,0.09375 0.40625,0.09375 z m -0.46875,-0.25 c -0.0036,-4.42e-4 -0.03125,0 -0.03125,0 1.3e-5,8.63e-4 -9.95e-4,0.01736 0,0.03125 0,0 0.02755,1.94e-4 0.03125,0 -0.0045,-0.01226 0.0045,-0.01899 0,-0.03125 z M 49.3125,63.5 c 0.02706,-0.01917 0.04202,-0.01674 0.0625,-0.03125 0.01419,0.0097 0.0625,0.03125 0.0625,0.03125 0,0 0.10974,0.0052 0.21875,0 0.0108,0.0069 0.02041,-0.0069 0.03125,0 0.01682,-8.04e-4 0.0147,-0.03046 0.03125,-0.03125 l 0.03125,0 c 0.08893,-0.0043 0.1875,0 0.1875,0 -0.03644,-0.0039 -0.176259,-0.01664 -0.3125,-0.03125 -0.01622,-0.01035 -0.01729,-0.02235 -0.03125,-0.03125 -0.04491,-0.02865 -0.125,-0.0625 -0.125,-0.0625 2e-6,1.4e-5 -0.0787,-0.0045 -0.125,0 -0.111012,-0.0436 -0.215162,-0.06782 -0.28125,-0.09375 0.03081,0.02098 0.09228,0.06015 0.1875,0.125 -0.140161,0.01354 -0.281255,0.0312 -0.28125,0.03125 6.5e-5,0.0046 -2.4e-5,0.0309 0,0.03125 6e-6,8.7e-5 -7e-6,0.03119 0,0.03125 0,0 0.08741,-0.02278 0.15625,-0.03125 0.06443,-0.01864 0.08673,-0.01113 0.15625,-0.03125 0.01723,0.01173 0.01632,0.02108 0.03125,0.03125 0.0088,0.006 0.02354,-0.0052 0.03125,0 -0.02083,0.01831 -0.0071,0.04131 -0.03125,0.0625 z m 0.5625,-0.28125 c -0.01042,-0.02083 -0.09375,-0.125 -0.125,-0.15625 -0.01114,-0.0038 -0.02199,0.0031 -0.03125,0 A 0.50929876,0.50929876 0 0 1 49.6875,63.03125 c -0.01222,-0.0041 -0.0625,0 -0.0625,0 0,0 0.13424,0.09566 0.25,0.1875 z m -0.25,-0.1875 c 0,0 -0.02512,-0.04696 -0.03125,-0.0625 -0.06127,-0.0075 -0.158678,-0.01623 -0.28125,-0.03125 0.144512,0.03918 0.3125,0.09375 0.3125,0.09375 z M 49.4375,62.5625 c 0,0 -0.01649,0.02446 -0.03125,0.03125 0,0 0.05379,0.02517 0.0625,0.03125 -0.0061,-0.01554 -0.03125,-0.0625 -0.03125,-0.0625 z m -0.125,0.03125 c -0.01042,0.01042 -0.01042,0.05208 0,0.0625 0,0 0.0625,-0.03125 0.0625,-0.03125 0,0 -0.01508,-0.0258 0,-0.03125 0,0 -0.03125,0 -0.03125,0 -0.0038,0.0038 -0.0273,-0.004 -0.03125,0 z M 49.25,62.6875 c -0.0037,0.0037 0.0039,0.02728 0,0.03125 0,0 0,0.03125 0,0.03125 0.0055,-0.0356 0.03126,-0.06253 0.03125,-0.0625 -0.0011,0.0023 -0.02943,-0.0037 -0.03125,0 z m 0,0.0625 c -0.104167,-0.04167 -0.135417,0.114583 -0.03125,0.15625 -0.01343,-0.0016 -0.0625,0 -0.0625,0 0.0104,0.0028 0.05851,0.0217 0.09375,0.03125 0,0 0.0012,-0.01893 0,-0.03125 -0.0025,-0.02463 0,-0.0625 0,-0.0625 -3e-6,1.9e-5 -0.0076,-0.04521 0,-0.09375 z m -0.09375,0.15625 c -7e-6,2.4e-5 -0.0069,-0.03713 0,-0.0625 0,0 -0.03125,0.0625 -0.03125,0.0625 0,0 0.02805,-8.68e-4 0.03125,0 z m 0.4375,-0.1875 c 0.06487,0.04528 0.07592,0.06892 0.15625,0.125 0,0 0.178832,0.191746 0.28125,0.28125 0.0059,0.0052 0.02627,-0.0044 0.03125,0 0.0046,0.004 -0.0036,0.02806 0,0.03125 0.0014,4.81e-4 -0.0011,0.03088 0,0.03125 0.0033,0.0011 0.03125,0 0.03125,0 0,0 0.03125,0.03125 0.03125,0.03125 l -0.03125,0 c 0,0 -0.0224,-0.007 -0.03125,0 0,0 0.03125,0.03125 0.03125,0.03125 l -0.03125,0 c -9.6e-4,0.0034 -0.03041,-0.003 -0.03125,0 -0.0057,0.0036 0.0057,0.02769 0,0.03125 l -0.03125,0 0,-0.03125 -0.03125,0 c -0.01019,-0.01933 -0.03214,-0.06741 -0.0625,-0.125 -0.01518,-0.0288 -0.01481,-0.03131 -0.03125,-0.0625 -0.0064,-0.01213 0.0063,-0.01926 0,-0.03125 -0.0099,-0.01884 -0.02197,-0.01365 -0.03125,-0.03125 L 49.8125,62.96875 c -0.02634,-0.04996 -0.0625,-0.125 -0.0625,-0.125 0,0 -0.04966,-0.0024 -0.0625,0 -0.02179,-0.03204 -0.04885,-0.05898 -0.09375,-0.125 z m 0.28125,0.3125 0.0625,0.0625 0.03125,0.03125 0.0625,0 c -0.05814,-0.03867 -0.0861,-0.04708 -0.15625,-0.09375 z m 0.21875,-0.125 0.125,0.1875 A 0.50929876,0.50929876 0 0 0 50.1875,63.125 l -0.03125,-0.03125 c 0,0 -0.0259,-0.04619 -0.03125,-0.0625 -0.0099,-0.03029 -0.01143,-0.06461 -0.03125,-0.125 z m -3.65625,0.25 c 0.01042,0 0.03125,0.02083 0.03125,0.03125 -0.01338,-0.0083 -0.0149,-0.02115 -0.03125,-0.03125 z m 1.09375,0.0625 c 0.0078,0.43061 0.176679,-0.221957 -0.03125,0.375 -0.123368,0.132871 -0.711414,0.177508 -0.5,0.25 -0.247835,-0.120182 -0.200431,-0.02116 -0.28125,-0.1875 A 0.50929876,0.50929876 0 0 0 47.5,63.25 l 0.03125,-0.03125 z m 1.4375,0.6875 c -1.6e-5,1.09e-4 2.76e-4,0.02465 0,0.03125 0.004,-0.01082 0.02449,-0.01285 0.03125,-0.03125 -0.0036,-5.14e-4 -0.03125,-3e-6 -0.03125,0 z M 49.9375,64.125 c -0.113347,0.08949 -0.3125,0.21875 -0.3125,0.21875 0,0 0.07671,-0.015 0.125,-0.03125 0.06988,-0.07449 0.12546,-0.121369 0.1875,-0.1875 z m -0.3125,0.21875 c 0,0 -0.168089,0.0542 -0.3125,0.09375 0.122547,-0.01522 0.219994,-0.02364 0.28125,-0.03125 0.0061,-0.01555 0.03125,-0.0625 0.03125,-0.0625 z M 49.9375,64.1875 49.875,64.25 c 0.0055,-0.0077 0.02581,0.0076 0.03125,0 0.0093,-0.01758 0.02317,-0.016 0.03125,-0.03125 0.0051,-0.0097 -0.0044,-0.02285 0,-0.03125 z m 0.21875,0.0625 c 0.01042,0 0.01042,0.02083 0,0.03125 0.0012,-0.0026 0,-0.03125 0,-0.03125 z m -1.09375,0.125 c 0,0.01042 0.02083,0.05208 0.03125,0.0625 0,0 0.02949,0.0014 0.03125,0 2.2e-5,2.8e-5 -0.03608,-0.02924 -0.0625,-0.0625 z m 0.1875,0.0625 c -0.03521,0.0096 -0.08335,0.0284 -0.09375,0.03125 0,0 0.04907,0.0017 0.0625,0 0,0 0,0.125 0,0.125 0,0 0,0.03125 0,0.03125 0,0 0.03125,0 0.03125,0 0,0 0,-0.09375 0,-0.09375 0,0 -0.0024,-0.03787 0,-0.0625 0.0012,-0.01231 0,-0.03125 0,-0.03125 z m -0.09375,0.03125 c -0.0032,8.76e-4 -0.03125,0 -0.03125,0 2.2e-5,5.8e-5 0.02949,0.09002 0.03125,0.09375 0,0 0,-0.09375 0,-0.09375 z m 0.25,0 c 0.0675,0.01234 0.08281,0.01783 0.15625,0.03125 0.0048,-0.01211 -0.0043,-0.02037 0,-0.03125 -0.06836,0.0018 -0.08168,-0.002 -0.15625,0 z m -0.09375,0.25 c -0.182817,0.051 0.263264,0.02742 0.03125,0.0625 0,0 0.03125,0 0.03125,0 -0.01512,-0.0054 0,-0.03125 0,-0.03125 0,0 -0.0625,-0.03125 -0.0625,-0.03125 z M 49.46875,64.75 c -0.0087,0.0061 -0.0625,0.03125 -0.0625,0.03125 0.01479,0.0068 0.03125,0.03125 0.03125,0.03125 0,0 0.02514,-0.04695 0.03125,-0.0625 z" transform="translate(.29072 .19381)"/>
<path style="opacity:.12" d="M 49.375,11.34375 C 46.639401,11.126146 43.105471,11.765317 40.5,12.9375 35.800006,15.052002 31.852337,19.371624 30.21875,24.25 29.37702,26.763674 29.1875,28.89754 29.1875,35.46875 l 0,3.5 -8.15625,0 c -0.951073,0.01099 -1.912849,0.144505 -2.59375,0.84375 -0.67838,0.696657 -0.769589,1.627656 -0.78125,2.53125 l 0,39.28125 c 0,0.885623 0.274501,1.789093 0.8125,2.53125 0.54898,0.757305 1.456306,1.375 2.5625,1.375 l 54.5,0 c 0.973598,0.0057 1.793439,-0.522374 2.40625,-1.1875 0.623423,-0.676644 1.099269,-1.620874 1.09375,-2.71875 l 0,-39.28125 C 79.030803,41.682356 79.058854,40.774606 78.4375,40 77.799784,39.204996 76.760969,38.96875 75.53125,38.96875 l -8.25,0 0,-3.5 c -0.0017,-4.264418 -0.117012,-7.735733 -0.625,-9.6875 C 64.52538,17.594133 57.824331,12.015844 49.375,11.34375 z m -1.03125,8.71875 c 1.024639,0.0011 2.040099,0.09619 2.75,0.28125 3.249419,0.847061 5.722751,2.846136 7.0625,5.625 0.861341,1.786592 0.882281,1.929234 0.875,4.125 -0.0048,1.491198 -0.04297,2.030008 -0.28125,2.90625 -0.438269,1.611623 -1.788853,4.233546 -3.1875,6.09375 -0.904326,1.202745 -2.30474,2.670551 -3.6875,4 0.125222,-0.393158 0.215171,-0.762121 0.28125,-1.0625 0.01894,-0.08608 0.106456,-0.252042 0.125,-0.53125 0.01743,-0.262365 -0.02539,-0.334135 -0.03125,-0.375 0.0095,0.06651 -0.04024,-0.477741 -0.34375,-0.78125 -6.2e-5,-6.2e-5 -0.05874,-0.0282 -0.0625,-0.03125 -0.0038,-0.0031 -0.02562,-0.02674 -0.03125,-0.03125 -0.01125,-0.009 -0.01413,-0.01795 -0.03125,-0.03125 -0.03425,-0.0266 -0.04038,-0.0275 -0.15625,-0.09375 -0.195245,-0.111626 -0.342629,-0.152487 -0.1875,-0.09375 -0.04415,-0.01672 -0.111973,-0.04141 -0.21875,-0.0625 -0.182284,-0.03601 -0.37346,-0.01115 -0.1875,0 -0.0962,-0.0058 -0.170946,-0.0014 -0.21875,0 -0.158764,0.0048 -0.261212,0.02139 -0.375,0.03125 -0.254975,0.02209 -0.6143,0.03797 -1.03125,0.09375 -4.232104,0.566258 -9.017741,-1.924722 -10.84375,-5.59375 -0.803024,-1.613516 -1.061658,-2.855052 -0.96875,-4.84375 0.112584,-2.409945 0.564119,-3.722751 1.8125,-5.375 1.306334,-1.72895 3.777315,-3.36535 6.125,-3.96875 0.720234,-0.185113 1.792256,-0.282309 2.8125,-0.28125 z m -0.0625,33.75 c 1.223946,-0.0025 1.865684,0.199935 2.71875,0.84375 2.497907,1.885185 2.495159,5.730571 -0.125,7.3125 a 0.68565304,0.68565304 0 0 0 -0.03125,0 l -0.90625,0.5625 c 0.0023,-0.0015 -0.06475,0.0641 -0.0625,0.0625 0.0022,-0.0016 -0.06464,0.033 -0.0625,0.03125 0.0021,-0.0017 -0.06452,0.06438 -0.0625,0.0625 0.002,-0.0019 -0.06439,0.06451 -0.0625,0.0625 0.0019,-0.002 -0.033,0.06463 -0.03125,0.0625 0.0018,-0.0021 -0.06411,0.06474 -0.0625,0.0625 0.0016,-0.0022 -0.03271,0.06484 -0.03125,0.0625 0.0015,-0.0023 -0.0638,0.06493 -0.0625,0.0625 0.0013,-0.0024 -0.03239,0.09626 -0.03125,0.09375 0.0011,-0.0025 -0.03222,0.06508 -0.03125,0.0625 9.75e-4,-0.0026 -0.03205,0.09639 -0.03125,0.09375 8.04e-4,-0.0026 -6.29e-4,0.06519 0,0.0625 6.29e-4,-0.0027 -0.0317,0.09647 -0.03125,0.09375 4.52e-4,-0.0027 -2.72e-4,0.06525 0,0.0625 2.72e-4,-0.0027 -9.2e-5,0.09651 0,0.09375 9.2e-5,-0.0028 8.9e-5,0.06526 0,0.0625 -8.9e-5,-0.0028 2.7e-4,0.0965 0,0.09375 -2.7e-4,-0.0027 4.49e-4,0.09647 0,0.09375 -4.49e-4,-0.0027 0.03188,0.06519 0.03125,0.0625 -6.26e-4,-0.0027 8.01e-4,0.09639 0,0.09375 -8.01e-4,-0.0026 0.03222,0.06508 0.03125,0.0625 -9.72e-4,-0.0026 0.03239,0.09627 0.03125,0.09375 -0.0011,-0.0025 0.03255,0.06494 0.03125,0.0625 -0.0013,-0.0024 0.06396,0.06484 0.0625,0.0625 -0.0015,-0.0023 0.03286,0.06474 0.03125,0.0625 -0.0016,-0.0022 0.06425,0.06463 0.0625,0.0625 -0.0018,-0.0021 0.03314,0.06451 0.03125,0.0625 -0.0019,-0.002 0.06452,0.06439 0.0625,0.0625 -0.002,-0.0019 0.06464,0.06425 0.0625,0.0625 -0.0021,-0.0018 0.06475,0.06411 0.0625,0.0625 -0.0022,-0.0016 0.06484,0.03271 0.0625,0.03125 -0.0023,-0.0015 0.09619,0.03255 0.09375,0.03125 a 0.68565304,0.68565304 0 0 0 0,0.03125 l 0.8125,0.40625 a 0.68565304,0.68565304 0 0 0 0.0625,0.03125 c 0.0023,0.0012 0.058,-0.0027 0.0625,0 0.06416,0.03829 0.277298,0.205688 0.5625,0.4375 0.312722,0.25418 0.699731,0.579316 1.03125,0.90625 1.74484,1.720712 2.221664,2.923066 2.125,5.53125 -0.02507,0.676539 -0.04737,1.061727 -0.0625,1.125 -0.03587,0.149971 0.01813,0.05279 -0.15625,0.28125 -0.02152,0.02819 -0.673547,0.526548 -0.625,0.5 -0.05896,0.03224 -0.0032,0.01201 -0.09375,0.03125 -0.09052,0.01924 -0.283788,0.0421 -0.65625,0.0625 -0.742202,0.04065 -2.078357,0.04998 -4.4375,0.0625 -2.584487,0.01372 -4.068395,0.01457 -4.90625,-0.03125 -0.846781,-0.04631 -0.892869,-0.06276 -1.125,-0.1875 0.108692,0.05841 -0.168469,-0.172065 -0.34375,-0.40625 -0.175281,-0.234185 -0.329874,-0.543787 -0.34375,-0.59375 -0.125875,-0.45323 -0.13299,-1.320076 0,-2.25 0.13299,-0.929924 0.407388,-1.927691 0.78125,-2.6875 0.475757,-0.966904 1.986228,-2.479026 2.78125,-2.84375 0.148654,-0.0682 0.344994,-0.126585 0.5625,-0.21875 0.19592,-0.08302 0.267232,-0.165138 0.25,-0.15625 -0.112192,0.05787 0.06684,-0.0099 0.21875,-0.125 0.04802,-0.03639 0.154891,-0.126093 0.25,-0.25 -0.09691,0.126256 0.09135,-0.03141 0.1875,-0.28125 0.0422,-0.109639 0.05395,-0.118998 0.0625,-0.15625 0.0085,-0.03725 0.03119,-0.124634 0.03125,-0.125 1.14e-4,-7.31e-4 7.2e-5,-0.311811 0,-0.3125 0,0 -0.02934,-0.150257 -0.03125,-0.15625 -0.0012,-0.0034 0.0012,-0.02785 0,-0.03125 -0.0024,-0.0068 -0.02832,0.0086 -0.03125,0 -0.0059,-0.01716 -0.0066,-0.05416 0,-0.03125 -0.05798,-0.202265 -0.13032,-0.288427 -0.0625,-0.125 -5.11e-4,-0.0026 -0.0491,-0.105067 -0.0625,-0.15625 -0.01452,-0.05545 -0.0081,-0.04633 -0.09375,-0.15625 -0.09977,-0.128041 -0.157034,-0.189536 -0.125,-0.15625 -0.03966,-0.04121 -0.133837,-0.149164 -0.25,-0.25 -0.187851,-0.163065 -0.399809,-0.304116 -0.65625,-0.46875 -1.541835,-0.989837 -2.31875,-3.403495 -1.59375,-5.34375 0.202636,-0.542297 0.378858,-0.785117 1.03125,-1.4375 1.068225,-1.068233 1.638616,-1.340532 3.09375,-1.34375 z" transform="translate(.06852 .09691)"/>
<path style="opacity:.24" d="m 49.9375,12.59375 c -2.577443,-0.205023 -6.057845,0.418482 -8.53125,1.53125 -4.509538,2.028817 -8.340306,6.229876 -9.90625,10.90625 -0.815621,2.435703 -1,4.441639 -1,11 l 0,4.1875 -8.84375,0 c -0.894357,0.01033 -1.611365,0.129619 -2.09375,0.625 -0.482385,0.495381 -0.582718,1.207622 -0.59375,2.0625 l 0,39.28125 c 0,0.736321 0.240527,1.508411 0.6875,2.125 0.446973,0.616589 1.150547,1.09375 2,1.09375 l 54.5,0 c 0.713437,0.0042 1.380442,-0.398054 1.90625,-0.96875 0.525808,-0.570696 0.910777,-1.349498 0.90625,-2.25 l 0,-39.28125 c -4.53e-4,-0.669705 0.01127,-1.346798 -0.4375,-1.90625 -0.448767,-0.559452 -1.234139,-0.78125 -2.375,-0.78125 l -8.9375,0 0,-4.1875 c -0.0017,-4.250459 -0.132909,-7.729378 -0.59375,-9.5 -2.06217,-7.92316 -8.506636,-13.286761 -16.6875,-13.9375 z m -0.96875,7.34375 c 1.068078,0.0011 2.136625,0.103727 2.9375,0.3125 3.421681,0.891966 6.071605,3.00602 7.5,5.96875 0.872784,1.810327 0.944831,2.226555 0.9375,4.4375 -0.0049,1.50708 -0.05936,2.162872 -0.3125,3.09375 -0.478621,1.760007 -1.826353,4.377483 -3.28125,6.3125 -1.460146,1.941981 -4.225793,4.735147 -5.96875,6.09375 0.384192,-0.788495 0.757392,-1.765383 1.03125,-2.59375 0.140345,-0.424516 0.244116,-0.814144 0.3125,-1.125 0.03419,-0.155428 0.0847,-0.269926 0.09375,-0.40625 0.0045,-0.06816 -0.01847,-0.160864 -0.03125,-0.25 -0.01278,-0.08914 -8e-5,-0.21883 -0.15625,-0.375 -4.99e-4,-4.99e-4 -0.09175,-0.07474 -0.125,-0.09375 -0.03325,-0.01901 -0.07129,-0.02275 -0.09375,-0.03125 -0.04491,-0.01701 -0.06979,-0.02652 -0.09375,-0.03125 -0.04791,-0.0095 -0.06758,0.0016 -0.09375,0 -0.05234,-0.0031 -0.108246,-0.0014 -0.15625,0 -0.09601,0.0029 -0.207112,0.01941 -0.34375,0.03125 -0.273276,0.02367 -0.614387,0.04216 -1,0.09375 -4.552176,0.609084 -9.583144,-1.991601 -11.5625,-5.96875 -0.844003,-1.695855 -1.127767,-3.121542 -1.03125,-5.1875 0.116318,-2.489883 0.624324,-4.011994 1.9375,-5.75 C 40.897239,22.578126 43.4845,20.896532 46,20.25 c 0.810162,-0.208226 1.902834,-0.313606 2.96875,-0.3125 z m -0.0625,33.75 c 1.313154,-0.0027 2.175053,0.251818 3.125,0.96875 2.86167,2.159719 2.853915,6.632486 -0.1875,8.46875 l -0.90625,0.5625 a 0.55919314,0.55919314 0 0 0 0.03125,0.96875 l 0.8125,0.40625 a 0.55919314,0.55919314 0 0 0 0.03125,0 c 0.335395,0.154623 1.147058,0.812942 1.84375,1.5 1.828805,1.803516 2.444594,3.341536 2.34375,6.0625 -0.02523,0.680794 -0.04514,1.046792 -0.09375,1.25 -0.04861,0.203208 -0.09418,0.286165 -0.28125,0.53125 -0.171594,0.224812 -0.649092,0.598138 -0.8125,0.6875 -0.139011,0.07602 -0.28207,0.144754 -1.0625,0.1875 -0.78043,0.04275 -2.109573,0.04998 -4.46875,0.0625 -2.585299,0.01372 -4.056438,0.01693 -4.9375,-0.03125 -0.881062,-0.04818 -1.120407,-0.12765 -1.40625,-0.28125 -0.28747,-0.154478 -0.904748,-0.950755 -1.03125,-1.40625 -0.344767,-1.241384 -0.02213,-3.741258 0.8125,-5.4375 0.579586,-1.177921 2.067027,-2.670895 3.125,-3.15625 0.205223,-0.09415 0.406113,-0.152483 0.5625,-0.21875 0.07819,-0.03313 0.148065,-0.08854 0.21875,-0.125 0.03534,-0.01823 0.06605,-0.01782 0.125,-0.0625 0.02947,-0.02234 0.07381,-0.0583 0.125,-0.125 0.0256,-0.03335 0.06808,-0.0583 0.09375,-0.125 0.01284,-0.03335 0.03114,-0.124269 0.03125,-0.125 1.14e-4,-7.31e-4 7.2e-5,-0.155561 0,-0.15625 -7.4e-5,-6.89e-4 -0.02392,-0.06816 -0.03125,-0.09375 -0.0073,-0.02558 -0.02414,-0.04536 -0.03125,-0.0625 -0.01423,-0.03429 -0.02033,-0.04391 -0.03125,-0.0625 -0.02184,-0.03717 -0.01623,-0.07447 -0.03125,-0.09375 -0.03005,-0.03856 -0.06579,-0.0647 -0.09375,-0.09375 -0.05591,-0.0581 -0.109756,-0.120014 -0.1875,-0.1875 C 46.438262,63.365028 46.231545,63.211151 46,63.0625 c -1.858383,-1.193056 -2.716623,-3.903888 -1.875,-6.15625 0.232396,-0.621942 0.508806,-1.008815 1.1875,-1.6875 1.138892,-1.138901 2.025828,-1.527783 3.59375,-1.53125 z" transform="translate(-.63333 -.56481)"/>
<path style="fill:url(#linearGradient4396)" d="m 18.571581,41.949219 c 0.02082,-1.613397 0.43999,-2.111436 2.120648,-2.130854 l 9.414126,0 0,-4.748325 c 0,-6.548473 0.156068,-8.4332 0.951109,-10.807445 1.510469,-4.510709 5.248648,-8.636006 9.599208,-10.5933 2.357988,-1.060843 5.850216,-1.690826 8.294882,-1.496365 7.963236,0.633428 14.178369,5.834555 16.185026,13.544424 0.418877,1.609389 0.536644,5.114587 0.538339,9.352686 l 0.0018,4.748325 9.51009,0 c 2.13943,0 2.240783,0.822538 2.241667,2.130854 l 0,39.271789 c 0.0074,1.471846 -1.278021,2.646746 -2.241667,2.641117 l -54.494668,0 c -1.277477,0 -2.120648,-1.429141 -2.120648,-2.641117 z m 35.560606,32.690754 c 0.278699,-0.152411 0.706483,-0.5388 0.950621,-0.858655 0.40168,-0.526245 0.449247,-0.725827 0.500112,-2.098319 0.104577,-2.821697 -0.588237,-4.629103 -2.495338,-6.509832 -0.724703,-0.714681 -1.531195,-1.338686 -2.023514,-1.565654 l -0.818567,-0.435241 0.903883,-0.545722 c 3.382393,-2.042131 3.417708,-6.986179 0.257945,-9.37087 -1.035329,-0.781371 -2.062883,-1.110143 -3.460679,-1.10726 -1.67315,0.0037 -2.790755,0.473602 -3.999746,1.682602 -0.708602,0.708592 -1.057767,1.214121 -1.316063,1.905378 -0.934372,2.500579 -0.0304,5.469298 2.077511,6.822548 0.407197,0.261418 0.744241,0.569248 0.748966,0.613324 0.0046,0.04412 -0.350188,0.186875 -0.788704,0.388051 -1.240954,0.569299 -2.747895,2.080689 -3.403937,3.413996 -0.899314,1.827699 -1.272853,4.3584 -0.861778,5.838536 0.180525,0.650017 0.791477,1.456684 1.317224,1.739205 0.702652,0.377574 1.425006,0.420627 6.597671,0.393178 4.721318,-0.02506 5.363635,-0.05877 5.814393,-0.305265 z M 49.951134,45.818597 c 1.804467,-1.356833 4.707399,-4.317547 6.266789,-6.391521 1.498817,-1.99343 2.862365,-4.619781 3.372573,-6.495941 0.265314,-0.975648 0.346153,-1.723509 0.351081,-3.24797 0.0074,-2.231663 -0.123542,-2.837383 -1.008956,-4.673907 -1.500797,-3.112904 -4.288375,-5.338027 -7.85072,-6.266661 -1.738063,-0.453079 -4.421764,-0.45586 -6.170512,-0.0064 -2.645972,0.680066 -5.324284,2.413394 -6.850661,4.433574 -1.368633,1.811404 -1.93664,3.480373 -2.056314,6.042088 -0.09967,2.133451 0.215021,3.707911 1.094178,5.474401 2.101359,4.222292 7.312491,6.921211 12.121307,6.277788 0.756308,-0.101187 1.40125,-0.157836 1.433214,-0.125873 0.185249,0.18525 -0.631402,2.647242 -1.384394,4.173583 -0.483697,0.980466 -0.820022,1.782664 -0.747391,1.782664 0.07259,0 0.716045,-0.439124 1.429806,-0.975823 z"/>
</g>
</svg>
