<svg width="256" xmlns="http://www.w3.org/2000/svg" height="256" viewBox="0 0 256 256">
<path style="fill:#6bc260" d="m 10.375,0 235.25,0 C 251.35547,0 256,4.644531 256,10.371094 L 256,245.625 C 256,251.35547 251.35547,256 245.625,256 l -235.25,0 C 4.644531,256 0,251.35547 0,245.625 L 0,10.371094 C 0,4.644531 4.644531,0 10.375,0 z"/>
<path style="fill:#fff" d="m 49.524216,111.86462 c 0.05552,-4.30237 1.173302,-5.63047 5.655054,-5.68226 l 25.104257,0 0,-12.662169 c 0,-17.462551 0.416185,-22.488477 2.536287,-28.819782 4.027909,-12.028527 13.996365,-23.029291 25.597826,-28.248729 6.28796,-2.828906 15.60055,-4.508857 22.11963,-3.990296 21.23525,1.689138 37.80889,15.558774 43.15997,36.118373 1.11699,4.291693 1.43104,13.638865 1.43557,24.940434 l 0.005,12.662169 25.36018,0 c 5.70514,0 5.9754,2.19344 5.97775,5.68226 l 0,104.72451 c 0.0187,3.92493 -3.40805,7.05799 -5.97775,7.04297 l -145.318761,0 c -3.406599,0 -5.655048,-3.81103 -5.655048,-7.04297 z m 94.828034,87.17514 c 0.7432,-0.40642 1.88397,-1.43679 2.53501,-2.28975 1.07114,-1.4033 1.19797,-1.93551 1.33362,-5.59551 0.27885,-7.52448 -1.56864,-12.34423 -6.65422,-17.3595 -1.93253,-1.90581 -4.08319,-3.56981 -5.39602,-4.17506 l -2.18284,-1.16063 2.41034,-1.45528 c 9.01968,-5.44567 9.11387,-18.62974 0.68786,-24.98892 -2.76087,-2.08365 -5.50103,-2.96037 -9.22846,-2.95269 -4.46172,0.0107 -7.44201,1.26296 -10.66597,4.48695 -1.8896,1.88957 -2.82072,3.23764 -3.50949,5.08097 -2.49165,6.6682 -0.0811,14.58477 5.54001,18.19342 1.08587,0.69712 1.98464,1.518 1.99725,1.63555 0.0133,0.1176 -0.93384,0.49831 -2.10322,1.03479 -3.30919,1.51813 -7.32769,5.5485 -9.07715,9.10395 -2.39815,4.87386 -3.39426,11.62238 -2.29805,15.56941 0.48139,1.73338 2.11058,3.88447 3.51258,4.63785 1.87373,1.00688 3.80002,1.12168 17.59375,1.04848 12.59015,-0.0669 14.303,-0.1568 15.505,-0.81403 z m -11.14944,-76.85682 c 4.81191,-3.61821 12.55304,-11.51344 16.7114,-17.04401 3.99684,-5.315806 7.63294,-12.319391 8.9935,-17.322472 0.70751,-2.601721 0.92309,-4.596012 0.93621,-8.661231 0.0187,-5.951087 -0.32944,-7.566336 -2.69053,-12.463721 -4.00212,-8.301057 -11.43565,-14.234703 -20.9352,-16.711054 -4.63482,-1.208208 -11.79136,-1.215624 -16.45466,-0.01707 -7.05593,1.813505 -14.19807,6.435701 -18.26838,11.822834 -3.649694,4.830399 -5.164357,9.280972 -5.483503,16.112195 -0.265866,5.689188 0.573385,9.887738 2.917806,14.598366 5.603607,11.259423 19.499927,18.456533 32.323417,16.740723 2.01679,-0.26981 3.73666,-0.42088 3.82188,-0.33565 0.494,0.49399 -1.68373,7.05929 -3.69169,11.12951 -1.28987,2.61459 -2.18675,4.75378 -1.99304,4.75378 0.1936,0 1.90944,-1.17101 3.81279,-2.60221 z"/>
</svg>
