<svg style="isolation:isolate" viewBox="0 0 48 48" xmlns="http://www.w3.org/2000/svg"><path d="M23.477 6.086c-1.062.072-2.266.348-3.15.746-2.175.979-4.044 3.043-4.8 5.299-.397 1.187-.474 2.127-.474 5.402v2.375h-4.707c-.84.01-1.05.259-1.06 1.065v19.635c0 .606.422 1.322 1.06 1.322h27.246c.482.003 1.125-.586 1.121-1.322V20.973c0-.654-.05-1.065-1.12-1.065h-4.755l-.002-2.375c0-2.118-.06-3.87-.27-4.676-1.002-3.855-4.11-6.454-8.091-6.771a6.857 6.857 0 0 0-.998 0zm.375 3.103a5.69 6.041 86.739 0 1 6.186 5.508 5.69 6.041 86.739 0 1-.32 1.955c-.967 3.413-5.678 7.142-5.485 6.729.197-.422 1.155-2.398 1.13-2.977a5.69 6.041 86.739 0 1-1.214.16 5.69 6.041 86.739 0 1-6.188-5.507 5.69 6.041 86.739 0 1 5.891-5.868zM24 26.105A2.822 2.894 0 0 1 26.823 29a2.822 2.894 0 0 1-1.653 2.629c1.515.44 2.616 1.692 2.616 3.185v1.358c0 .72-.758 1.3-1.7 1.3h-4.171c-.942 0-1.7-.58-1.7-1.3v-1.358c0-1.492 1.1-2.743 2.614-3.183A2.822 2.894 0 0 1 21.179 29 2.822 2.894 0 0 1 24 26.105z" fill="#bebebe"/></svg>