<?xml version="1.0" encoding="UTF-8" standalone="no"?>
<!-- Generator: Adobe Illustrator 16.0.0, SVG Export Plug-In . SVG Version: 6.00 Build 0)  -->
<svg xmlns:dc="http://purl.org/dc/elements/1.1/" xmlns:cc="http://creativecommons.org/ns#" xmlns:rdf="http://www.w3.org/1999/02/22-rdf-syntax-ns#" xmlns:svg="http://www.w3.org/2000/svg" xmlns="http://www.w3.org/2000/svg" xmlns:sodipodi="http://sodipodi.sourceforge.net/DTD/sodipodi-0.dtd" xmlns:inkscape="http://www.inkscape.org/namespaces/inkscape" version="1.1" id="Layer_1" x="0" y="0" width="18" height="18" viewBox="0 0 18 18" inkscape:version="0.48.3.1 r9886" sodipodi:docname="settings.svg" style="enable-background:new 0 0 15.615 15.616">
 <metadata id="metadata9">
  <rdf:RDF>
   <cc:Work>
    <dc:format>image/svg+xml</dc:format>
    <dc:type rdf:resource="http://purl.org/dc/dcmitype/StillImage"/>
   </cc:Work>
  </rdf:RDF>
 </metadata>
 <defs id="defs7"/>
 <sodipodi:namedview pagecolor="#000000" bordercolor="#666666" borderopacity="1" objecttolerance="10" gridtolerance="10" guidetolerance="10" inkscape:pageopacity="1" inkscape:pageshadow="2" inkscape:window-width="640" inkscape:window-height="480" id="namedview5" showgrid="false" inkscape:zoom="15.112705" inkscape:cx="7.8074999" inkscape:cy="7.8080001" inkscape:window-x="143" inkscape:window-y="293" inkscape:window-maximized="0" inkscape:current-layer="Layer_1"/>
 <path d="m 16.8075,8.2259999 c 0,-0.197 -0.163,-0.358 -0.358,-0.358 h -0.66 c -0.199,0 -0.407,-0.154 -0.462,-0.345 l -0.896,-2.092 c -0.095,-0.171 -0.064,-0.425 0.075,-0.567 l 0.446,-0.445 c 0.14,-0.14 0.14,-0.367 0,-0.507 l -1.073,-1.074 c -0.139,-0.14 -0.367,-0.14 -0.51,0 l -0.483,0.484 c -0.142,0.142 -0.399,0.18 -0.574,0.09 l -1.82,-0.73 c -0.19,-0.053 -0.348,-0.259 -0.348,-0.458 v -0.675 c 0,-0.195 -0.161,-0.357 -0.356,-0.357 h -1.52 c -0.197,0 -0.359,0.162 -0.359,0.357 v 0.675 c 0,0.199 -0.156,0.406 -0.344,0.465 l -2.11,0.903 c -0.17,0.099 -0.422,0.066 -0.563,-0.072 l -0.475,-0.474 c -0.138,-0.139 -0.367,-0.139 -0.506,0 l -1.074,1.075 c -0.141,0.14 -0.141,0.367 0,0.507 l 0.515,0.519 c 0.143,0.14 0.181,0.396 0.089,0.57 l -0.718,1.805 c -0.053,0.191 -0.259,0.346 -0.458,0.346 h -0.716 c -0.197,0 -0.357,0.161 -0.357,0.358 v 1.5190002 c 0,0.198 0.16,0.3599999 0.357,0.3599999 h 0.716 c 0.199,0 0.407,0.154 0.464,0.344 l 0.882,2.076 c 0.101,0.171 0.065,0.425 -0.072,0.564 l -0.494,0.493 c -0.139,0.14 -0.139,0.367 0,0.507 l 1.076,1.074 c 0.14,0.14 0.368,0.14 0.505,0 l 0.528,-0.525 c 0.141,-0.14 0.394,-0.177 0.57,-0.083 l 1.841,0.734 c 0.188,0.055 0.344,0.262 0.344,0.458 v 0.702 c 0,0.198 0.162,0.359 0.359,0.359 h 1.52 c 0.195,0 0.356,-0.161 0.356,-0.359 v -0.702 c 0,-0.196 0.156,-0.403 0.348,-0.461 l 2.059,-0.874 c 0.172,-0.097 0.422,-0.063 0.564,0.075 l 0.465,0.468 c 0.139,0.139 0.368,0.139 0.507,0 l 1.076,-1.076 c 0.139,-0.139 0.139,-0.368 0,-0.506 l -0.497,-0.495 c -0.137,-0.14 -0.176,-0.396 -0.082,-0.57 l 0.746,-1.857 c 0.052,-0.19 0.26,-0.345 0.459,-0.347 h 0.66 c 0.195,0 0.358,-0.1609999 0.358,-0.3579999 V 8.2259999 z M 9.0005,11.552 c -1.411,0 -2.552,-1.143 -2.552,-2.5529999 0,-1.4100002 1.141,-2.5520002 2.552,-2.5520002 1.409,0 2.554,1.142 2.554,2.5520002 0,1.4099999 -1.145,2.5529999 -2.554,2.5529999 z" id="path3" inkscape:connector-curvature="0" style="fill:#ffffff"/>
</svg>
