<?xml version="1.0" encoding="UTF-8" standalone="no"?>
<!-- Generator: Adobe Illustrator 16.0.0, SVG Export Plug-In . SVG Version: 6.00 Build 0)  -->
<svg xmlns:dc="http://purl.org/dc/elements/1.1/" xmlns:cc="http://creativecommons.org/ns#" xmlns:rdf="http://www.w3.org/1999/02/22-rdf-syntax-ns#" xmlns:svg="http://www.w3.org/2000/svg" xmlns="http://www.w3.org/2000/svg" xmlns:sodipodi="http://sodipodi.sourceforge.net/DTD/sodipodi-0.dtd" xmlns:inkscape="http://www.inkscape.org/namespaces/inkscape" version="1.1" id="Layer_1" x="0" y="0" width="18" height="18" viewBox="0 0 18 18" inkscape:version="0.48.3.1 r9886" sodipodi:docname="transfer.svg" style="enable-background:new 0 0 15.604 15.604">
 <metadata id="metadata13">
  <rdf:RDF>
   <cc:Work>
    <dc:format>image/svg+xml</dc:format>
    <dc:type rdf:resource="http://purl.org/dc/dcmitype/StillImage"/>
   </cc:Work>
  </rdf:RDF>
 </metadata>
 <defs id="defs11"/>
 <sodipodi:namedview pagecolor="#000000" bordercolor="#666666" borderopacity="1" objecttolerance="10" gridtolerance="10" guidetolerance="10" inkscape:pageopacity="1" inkscape:pageshadow="2" inkscape:window-width="1920" inkscape:window-height="1028" id="namedview9" showgrid="false" inkscape:zoom="15.124327" inkscape:cx="-0.099177967" inkscape:cy="7.802" inkscape:window-x="0" inkscape:window-y="0" inkscape:window-maximized="1" inkscape:current-layer="Layer_1"/>
 <g id="g3" transform="translate(1.1980647,1.1983455)">
  <path d="M 6.303,15.588 C 6.199,15.57 6.063,15.531 5.986,15.438 5.909,15.345 5.837,15.137 5.867,14.834 L 6.482,8.78 C 6.505,8.55 6.597,8.288 6.779,8.319 6.912,8.342 7.119,8.483 7.331,8.694 l 1.4,1.4 4.144,-4.145 c 0.076,-0.076 0.191,-0.105 0.321,-0.084 0.131,0.023 0.263,0.096 0.37,0.203 l 1.828,1.828 c 0.223,0.223 0.277,0.533 0.117,0.691 l -4.143,4.143 1.4,1.4 c 0.293,0.293 0.387,0.508 0.377,0.602 -0.01,0.094 -0.138,0.215 -0.463,0.248 L 6.627,15.595 C 6.513,15.608 6.402,15.606 6.303,15.588 l 0,0 z" id="path5" inkscape:connector-curvature="0" style="fill:#ffffff"/>
  <path d="M 9.303,0.015 C 9.405,0.033 9.543,0.072 9.619,0.165 9.696,0.259 9.77,0.467 9.738,0.77 L 9.122,6.825 C 9.1,7.055 9.006,7.315 8.825,7.284 8.691,7.26 8.484,7.122 8.273,6.911 l -1.4,-1.4 -4.144,4.144 C 2.652,9.731 2.539,9.76 2.408,9.737 2.277,9.715 2.146,9.645 2.037,9.536 L 0.209,7.708 C -0.014,7.485 -0.066,7.175 0.092,7.015 l 4.143,-4.143 -1.4,-1.4 C 2.543,1.181 2.45,0.967 2.46,0.872 2.47,0.778 2.597,0.657 2.922,0.625 L 8.978,0.008 c 0.114,-0.013 0.223,-0.01 0.325,0.007 l 0,0 z" id="path7" inkscape:connector-curvature="0" style="fill:#ffffff"/>
 </g>
</svg>
