<svg xmlns="http://www.w3.org/2000/svg" style="isolation:isolate" width="512.991" height="102"><g style="line-height:1.25;-inkscape-font-specification:Roboto"><path d="M176.8 9.328l-32.64 91.392h-11.52L100 9.328h12.032l20.608 58.624q2.048 5.632 3.456 10.624 1.408 4.864 2.304 9.344.896-4.48 2.304-9.472 1.408-4.992 3.456-10.752l20.48-58.368zm34.826 21.504q8.832 0 15.104 3.84 6.4 3.84 9.728 10.88 3.456 6.912 3.456 16.256v6.784h-46.976q.256 11.648 5.888 17.792 5.76 6.016 16 6.016 6.528 0 11.52-1.152 5.12-1.28 10.496-3.584v9.856q-5.248 2.304-10.368 3.328-5.12 1.152-12.16 1.152-9.728 0-17.28-3.968-7.424-3.968-11.648-11.776-4.096-7.936-4.096-19.328 0-11.264 3.712-19.328 3.84-8.064 10.624-12.416 6.912-4.352 16-4.352zm-.128 9.216q-8.064 0-12.8 5.248-4.608 5.12-5.504 14.336h34.944q-.128-8.704-4.096-14.08-3.968-5.504-12.544-5.504zm78.906-9.216q12.288 0 18.56 6.016 6.272 5.888 6.272 19.2v44.672H304.1V56.816q0-16.512-15.36-16.512-11.392 0-15.744 6.4t-4.352 18.432v35.584H257.38V32.112h9.088l1.664 9.344h.64q3.328-5.376 9.216-7.936 5.888-2.688 12.416-2.688zm105.624 35.456q0 17.024-8.704 26.368Q378.748 102 364.028 102q-9.088 0-16.256-4.096-7.04-4.224-11.136-12.16-4.096-8.064-4.096-19.456 0-17.024 8.576-26.24 8.576-9.216 23.296-9.216 9.344 0 16.384 4.224 7.168 4.096 11.136 12.032 4.096 7.808 4.096 19.2zm-51.84 0q0 12.16 4.736 19.328 4.864 7.04 15.36 7.04 10.368 0 15.232-7.04 4.864-7.168 4.864-19.328t-4.864-19.072q-4.864-6.912-15.36-6.912-10.496 0-15.232 6.912-4.736 6.912-4.736 19.072zm144.956-35.456q11.648 0 17.408 6.016 5.76 5.888 5.76 19.2v44.672h-11.136V56.56q0-16.256-13.952-16.256-9.984 0-14.336 5.76-4.224 5.76-4.224 16.768v37.888h-11.136V56.56q0-16.256-14.08-16.256-10.368 0-14.336 6.4t-3.968 18.432v35.584H413.88V32.112h9.088l1.664 9.344h.64q3.2-5.376 8.576-7.936 5.504-2.688 11.648-2.688 16.128 0 20.992 11.52h.64q3.456-5.888 9.344-8.704 6.016-2.816 12.672-2.816z" style="line-height:1;-inkscape-font-specification:'Noto Sans';text-align:start" aria-label="Venom" font-weight="400" font-size="128" font-family="Noto Sans" letter-spacing="0" word-spacing="0"/></g><g transform="translate(-24 -18)"><rect ry="8" rx="8" y="60" x="24" height="60" width="80" style="marker:none" opacity=".5"/><g fill="#deddda"><path style="isolation:isolate" d="M64 18c-13.255 0-24 10.745-24 24v16h48V42c0-13.255-10.745-24-24-24z"/><rect style="marker:none" width="80" height="60" x="24" y="56" rx="8" ry="8"/></g><path d="M63.6 26.99c-9.069.267-16.242 7.412-16.016 15.953.226 8.542 7.758 15.247 16.822 14.971a16.98 16.98 0 0 0 3.301-.434c.068 1.575-2.537 6.945-3.072 8.092-.525 1.123 12.181-9.044 14.912-18.293.515-1.745.915-3.51.869-5.314-.22-8.539-7.753-15.241-16.816-14.975zm.402 45.989c-4.237.001-7.671 3.524-7.67 7.869.002 3.079 1.755 5.875 4.486 7.154-4.116 1.196-7.107 4.596-7.107 8.652v3.692c0 1.957 2.062 3.535 4.623 3.535h11.338c2.56 0 4.621-1.578 4.621-3.535v-3.692c0-4.059-2.993-7.462-7.111-8.658 2.732-1.275 4.489-4.07 4.494-7.148.001-4.348-3.435-7.871-7.674-7.87z" style="isolation:isolate" fill="#333"/></g></svg>