<svg xmlns="http://www.w3.org/2000/svg" style="isolation:isolate" width="538.992" height="107.694"><path d="M42.573.055c-3.186.216-6.798 1.044-9.45 2.238-6.525 2.937-12.132 9.129-14.4 15.897-1.191 3.56-1.422 6.38-1.422 16.205v7.125H3.18c-2.52.03-3.15.778-3.18 3.195v58.905c0 1.818 1.266 3.966 3.18 3.966h81.738c1.446.009 3.375-1.758 3.363-3.966V44.715c0-1.962-.15-3.195-3.36-3.195H70.656l-.006-7.125c0-6.354-.18-11.61-.81-14.028C66.834 8.803 57.51 1.005 45.567.055a20.571 20.571 0 0 0-2.994 0zm1.125 9.309a17.07 18.123 86.739 0 1 18.558 16.524 17.07 18.123 86.739 0 1-.96 5.865C58.395 41.992 44.262 53.179 44.841 51.94c.591-1.266 3.465-7.194 3.39-8.931a17.07 18.123 86.739 0 1-3.642.48 17.07 18.123 86.739 0 1-18.564-16.521A17.07 18.123 86.739 0 1 43.698 9.364zm.444 50.748a8.466 8.682 0 0 1 8.469 8.685 8.466 8.682 0 0 1-4.959 7.887c4.545 1.32 7.848 5.076 7.848 9.555v4.074c0 2.16-2.274 3.9-5.1 3.9H37.887c-2.826 0-5.1-1.74-5.1-3.9v-4.074c0-4.476 3.3-8.23 7.842-9.55a8.466 8.682 0 0 1-4.95-7.892 8.466 8.682 0 0 1 8.463-8.685z" fill="#bebebe"/><text style="line-height:1.25" x="126.679" y="106.414" font-weight="400" font-size="120" letter-spacing="0" word-spacing="0" font-family="sans-serif" stroke-width="3" fill="#bebebe"><tspan x="126.679" y="106.414" style="-inkscape-font-specification:'Noto Sans'" font-size="128" font-family="Noto Sans">Venom</tspan></text></svg>