<?xml version="1.0" encoding="UTF-8" standalone="no"?>
<!-- Generator: Adobe Illustrator 16.0.0, SVG Export Plug-In . SVG Version: 6.00 Build 0)  -->
<svg xmlns:osb="http://www.openswatchbook.org/uri/2009/osb" xmlns:dc="http://purl.org/dc/elements/1.1/" xmlns:cc="http://creativecommons.org/ns#" xmlns:rdf="http://www.w3.org/1999/02/22-rdf-syntax-ns#" xmlns:svg="http://www.w3.org/2000/svg" xmlns="http://www.w3.org/2000/svg" xmlns:xlink="http://www.w3.org/1999/xlink" xmlns:sodipodi="http://sodipodi.sourceforge.net/DTD/sodipodi-0.dtd" xmlns:inkscape="http://www.inkscape.org/namespaces/inkscape" version="1.1" id="Layer_1" x="0" y="0" width="44" height="41" viewBox="0 0 44 41" inkscape:version="0.48.3.1 r9886" sodipodi:docname="default_groupchat.svg">
 <metadata id="metadata21">
  <rdf:RDF>
   <cc:Work>
    <dc:format>image/svg+xml</dc:format>
    <dc:type rdf:resource="http://purl.org/dc/dcmitype/StillImage"/>
    <dc:title/>
   </cc:Work>
  </rdf:RDF>
 </metadata>
 <defs id="defs19">
  <linearGradient id="linearGradient5247" osb:paint="solid">
   <stop id="stop5249" style="stop-color:#444042;stop-opacity:1"/>
  </linearGradient>
  <linearGradient id="linearGradient5241" osb:paint="solid">
   <stop id="stop5243" style="stop-color:#000000;stop-opacity:0.682"/>
  </linearGradient>
  <linearGradient id="linearGradient5235" osb:paint="solid">
   <stop id="stop5237" style="stop-color:#bbbbbb;stop-opacity:1"/>
  </linearGradient>
  <linearGradient inkscape:collect="always" id="linearGradient5225" osb:paint="gradient">
   <stop id="stop5227" style="stop-color:#000000;stop-opacity:1"/>
   <stop offset="1" id="stop5229" style="stop-color:#000000;stop-opacity:0"/>
  </linearGradient>
  <linearGradient id="linearGradient3785" osb:paint="solid">
   <stop id="stop3787" style="stop-color:#000000;stop-opacity:0.356"/>
  </linearGradient>
  <linearGradient id="linearGradient3779" osb:paint="solid">
   <stop id="stop3781" style="stop-color:#000000;stop-opacity:0.318"/>
  </linearGradient>
  <linearGradient inkscape:collect="always" xlink:href="#linearGradient5247" id="linearGradient5251" x1="0" y1="7.959" x2="15.403" y2="7.959" gradientUnits="userSpaceOnUse"/>
 </defs>
 <sodipodi:namedview pagecolor="#000000" bordercolor="#666666" borderopacity="0.63921569" objecttolerance="10" gridtolerance="10" guidetolerance="10" inkscape:pageopacity="0" inkscape:pageshadow="2" inkscape:window-width="1920" inkscape:window-height="1028" id="namedview17" showgrid="false" inkscape:zoom="10.483553" inkscape:cx="0.96918297" inkscape:cy="27.702172" inkscape:window-x="0" inkscape:window-y="0" inkscape:window-maximized="1" inkscape:current-layer="Layer_1"/>
 <g id="g3" transform="matrix(2.5,0,0,2.5,2.7470522,0.6025)" style="stroke-dasharray:none;stroke-opacity:1;fill:#ffffff;stroke-miterlimit:4;fill-opacity:1;stroke:url(#linearGradient5251);stroke-width:0.4">
  <path d="m 9.429,11.411 c 4.71,1.681 3.195,4.507 3.195,4.507 H 2.666 c 0,0 -0.773,-3.161 3.465,-4.507 0,0 1.682,1.412 3.298,0 z" id="path5" inkscape:connector-curvature="0" style="stroke-dasharray:none;stroke-opacity:1;fill:#ffffff;stroke-miterlimit:4;fill-opacity:1;stroke:url(#linearGradient5251);stroke-width:0.4"/>
  <path d="m 4.92,6.682 c 0,0 0.27,3.938 2.793,3.938 2.523,0 2.826,-3.668 2.826,-3.668 0,0 0.101,-3.194 -2.826,-3.194 -2.927,0 -2.793,2.924 -2.793,2.924 z" id="path7" inkscape:connector-curvature="0" style="stroke-dasharray:none;stroke-opacity:1;fill:#ffffff;stroke-miterlimit:4;fill-opacity:1;stroke:url(#linearGradient5251);stroke-width:0.4"/>
  <path d="M 3.359,7.276 C 3.354,7.184 3.343,6.756 3.452,6.194 2.931,6.094 2.611,5.858 2.611,5.858 -0.539,6.903 0.042,9.088 0.042,9.088 H 3.693 C 3.428,8.178 3.368,7.413 3.361,7.313 L 3.359,7.276 z" id="path9" inkscape:connector-curvature="0" style="stroke-dasharray:none;stroke-opacity:1;fill:#ffffff;stroke-miterlimit:4;fill-opacity:1;stroke:url(#linearGradient5251);stroke-width:0.4"/>
  <path d="m 12.1,7.522 v 0.041 l -0.004,0.04 c -0.035,0.427 -0.127,0.944 -0.29,1.485 h 3.554 c 0,0 0.583,-2.186 -2.567,-3.23 0,0 -0.319,0.234 -0.835,0.335 0.153,0.684 0.146,1.221 0.142,1.329 z" id="path11" inkscape:connector-curvature="0" style="stroke-dasharray:none;stroke-opacity:1;fill:#ffffff;stroke-miterlimit:4;fill-opacity:1;stroke:url(#linearGradient5251);stroke-width:0.4"/>
  <path d="M 5.904,2.525 C 5.923,2.403 5.93,2.328 5.93,2.328 5.93,2.328 6.002,0 3.88,0 1.758,0 1.855,2.131 1.855,2.131 c 0,0 0.18,2.606 1.781,2.85 C 3.812,4.468 4.097,3.918 4.558,3.436 4.859,3.121 5.297,2.774 5.904,2.525 z" id="path13" inkscape:connector-curvature="0" style="stroke-dasharray:none;stroke-opacity:1;fill:#ffffff;stroke-miterlimit:4;fill-opacity:1;stroke:url(#linearGradient5251);stroke-width:0.4"/>
  <path d="M 11.758,4.99 C 13.422,4.82 13.627,2.328 13.627,2.328 13.627,2.328 13.699,0 11.576,0 9.455,0 9.553,2.131 9.553,2.131 c 0,0 0.013,0.183 0.061,0.454 0.519,0.238 0.905,0.548 1.18,0.832 0.468,0.484 0.77,1.042 0.964,1.573 z" id="path15" inkscape:connector-curvature="0" style="stroke-dasharray:none;stroke-opacity:1;fill:#ffffff;stroke-miterlimit:4;fill-opacity:1;stroke:url(#linearGradient5251);stroke-width:0.4"/>
 </g>
</svg>
