<svg xmlns="http://www.w3.org/2000/svg" style="isolation:isolate" viewBox="0 0 48 48"><path style="isolation:isolate" d="M24 5.25a9 9 0 0 0-9 9v5.25h-3c-1.711 0-3 1.251-3 3V39c0 1.693 1.257 3 3 3h24c1.723 0 3-1.31 3-3V22.5c0-1.64-1.312-3-3-3h-3v-5.25a9 9 0 0 0-9-9zm-.15 3.371c3.399-.1 6.224 2.414 6.306 5.616.018.676-.132 1.338-.326 1.993-1.024 3.468-5.789 7.28-5.592 6.86.2-.43 1.178-2.445 1.152-3.035-.406.094-.82.15-1.238.163-3.399.104-6.223-2.411-6.308-5.614-.085-3.203 2.605-5.883 6.006-5.983zM24 25.867c1.59 0 2.88 1.32 2.878 2.95 0 1.155-.66 2.203-1.685 2.682 1.544.448 2.667 1.724 2.667 3.246v1.385c0 .734-.773 1.325-1.733 1.325h-4.252c-.96 0-1.734-.591-1.734-1.325v-1.385c0-1.52 1.122-2.796 2.666-3.244a2.957 2.957 0 0 1-1.683-2.683c0-1.63 1.29-2.951 2.877-2.951z" fill="#bebebe"/></svg>