<svg xmlns="http://www.w3.org/2000/svg" viewBox="0 0 512 512"><path d="M299.368 123.91c6.533-.708 23.589-2.447 30.31-2.447C430.373 121.463 512 203.092 512 303.785s-81.628 182.323-182.322 182.323c-13.662 0-25.739-.587-38.544-3.436l8.234-358.762z" fill="#ffa81e"/><path d="M225.264 482.672c-12.124 2.541-30.062 5.104-42.942 5.104C81.628 487.775 0 406.147 0 305.453s81.628-182.322 182.323-182.322c12.098 0 23.921 1.179 35.36 3.426z" fill="#ffe571"/><path d="M305.164 127.423c78.216 20.526 135.912 91.705 135.912 176.361 0 100.694-81.628 182.323-182.323 182.323-100.695 0-182.321-81.628-182.321-182.321 0-86.244 59.879-158.501 140.332-177.464z" fill="#ffd92d"/><path d="M264.125 82.97c15.724.02 31.953-12.326 32.725-28.008.795-16.151-11.654-29.891-27.806-30.688-28.953-1.426-53.933 28.054-55.794 65.845-.349 7.076.138 13.942 1.35 20.439.483 2.597.913 5.205 1.232 7.829.491 4.053 2.78 11.485 12.778 13.852 13.995 3.315 23.022 4.805 46.719 3.59 26.761-1.373 40.884-13.534 40.884-13.534-24.488-1.206-44.663-17.436-52.088-39.325z" fill="#7d0"/><g fill="#e6001f"><path d="M254.554 160.452a55.877 59.324 86.739 0 1 60.748 54.09 55.877 59.324 86.739 0 1-3.142 19.199c-9.497 33.517-55.76 70.136-53.865 66.08 1.935-4.144 11.343-23.548 11.097-29.234a55.877 59.324 86.739 0 1-11.921 1.57 55.877 59.324 86.739 0 1-60.768-54.08 55.877 59.324 86.739 0 1 57.85-57.625zM256.007 326.572a27.713 28.42 0 0 1 27.723 28.43 27.713 28.42 0 0 1-16.233 25.817c14.878 4.321 25.69 16.616 25.69 31.278v13.336c0 7.07-7.444 12.766-16.695 12.766h-40.96c-9.25 0-16.694-5.696-16.694-12.766v-13.336c0-14.652 10.802-26.937 25.67-31.258a27.713 28.42 0 0 1-16.204-25.837 27.713 28.42 0 0 1 27.703-28.43z" style="isolation:isolate"/></g></svg>