<?xml version="1.0" encoding="UTF-8"?>
<svg style="isolation:isolate" viewBox="0 0 48 48" xmlns="http://www.w3.org/2000/svg">
<defs>
<clipPath id="a">
<rect width="48" height="48"/>
</clipPath>
</defs>
<g clip-path="url(#a)">
<path d="m9.285 20.973c0.011-0.806 0.22-1.055 1.06-1.065h4.707v-2.374c0-3.275 0.078-4.217 0.476-5.404 0.755-2.256 2.624-4.318 4.799-5.297 1.179-0.53 2.926-0.845 4.148-0.748 3.981 0.317 7.089 2.917 8.092 6.772 0.21 0.805 0.269 2.558 0.269 4.676l1e-3 2.375h4.755c1.07 0 1.121 0.411 1.121 1.065v19.635c4e-3 0.736-0.639 1.324-1.121 1.321h-27.247c-0.638 0-1.06-0.715-1.06-1.321v-19.635zm17.78 16.346c0.139-0.076 0.353-0.27 0.475-0.43 0.201-0.263 0.225-0.363 0.25-1.049 0.053-1.411-0.294-2.314-1.247-3.255-0.363-0.357-0.766-0.669-1.012-0.783l-0.409-0.217 0.452-0.273c1.691-1.021 1.709-3.493 0.129-4.686-0.518-0.39-1.032-0.555-1.731-0.553-0.836 2e-3 -1.395 0.237-1.999 0.841-0.355 0.354-0.529 0.607-0.658 0.953-0.468 1.25-0.016 2.734 1.038 3.411 0.204 0.131 0.372 0.285 0.375 0.307 2e-3 0.022-0.175 0.093-0.395 0.194-0.62 0.284-1.374 1.04-1.702 1.707-0.449 0.914-0.636 2.179-0.43 2.919 0.09 0.325 0.395 0.728 0.658 0.869 0.352 0.189 0.713 0.211 3.299 0.197 2.361-0.012 2.682-0.029 2.907-0.153v1e-3zm-2.09-14.411c0.902-0.678 2.353-2.159 3.133-3.196 0.749-0.997 1.431-2.31 1.686-3.248 0.133-0.488 0.173-0.861 0.176-1.624 3e-3 -1.116-0.062-1.418-0.505-2.337-0.75-1.556-2.144-2.669-3.925-3.133-0.869-0.227-2.211-0.228-3.085-3e-3 -1.323 0.34-2.662 1.206-3.425 2.217-0.685 0.905-0.969 1.74-1.029 3.021-0.049 1.066 0.108 1.854 0.548 2.737 1.05 2.111 3.656 3.46 6.06 3.139 0.378-0.051 0.701-0.079 0.717-0.063 0.092 0.092-0.316 1.323-0.693 2.087-0.241 0.49-0.41 0.891-0.373 0.891 0.036 0 0.358-0.22 0.715-0.488z" fill="#bebebe"/>
</g>
</svg>
