<svg xmlns="http://www.w3.org/2000/svg" width="26" height="26">
 <path d="M 13 8 C 10.238576 8 8 10.238576 8 13 C 8 15.761424 10.238576 18 13 18 C 15.761424 18 18 15.761424 18 13 C 18 10.238576 15.761424 8 13 8 z M 13 9.5 C 14.932997 9.5 16.5 11.067003 16.5 13 L 9.5 13 C 9.5 11.067003 11.067003 9.5 13 9.5 z " fill="#cebf44"/>
 <path d="m 20.253572,13 c 0,4.006037 -3.247535,7.253572 -7.253572,7.253572 -4.0060374,0 -7.2535724,-3.247535 -7.2535724,-7.253572 0,-4.0060374 3.247535,-7.2535724 7.2535724,-7.2535724 4.006037,0 7.253572,3.247535 7.253572,7.2535724 l 0,0 z" fill="none" stroke="#cebf44" stroke-width="1.493"/>
</svg>
