<?xml version="1.0" encoding="UTF-8" standalone="no"?>
<!-- Created with Inkscape (http://www.inkscape.org/) -->

<svg
   xmlns:dc="http://purl.org/dc/elements/1.1/"
   xmlns:cc="http://creativecommons.org/ns#"
   xmlns:rdf="http://www.w3.org/1999/02/22-rdf-syntax-ns#"
   xmlns:svg="http://www.w3.org/2000/svg"
   xmlns="http://www.w3.org/2000/svg"
   xmlns:xlink="http://www.w3.org/1999/xlink"
   xmlns:sodipodi="http://sodipodi.sourceforge.net/DTD/sodipodi-0.dtd"
   xmlns:inkscape="http://www.inkscape.org/namespaces/inkscape"
   width="26"
   height="26"
   id="svg2"
   version="1.1"
   inkscape:version="0.48.4 r9939"
   sodipodi:docname="busy.svg">
  <defs
     id="defs4">
    <linearGradient
       inkscape:collect="always"
       id="linearGradient3813">
      <stop
         style="stop-color:#c84e4e;stop-opacity:1;"
         offset="0"
         id="stop3815" />
      <stop
         style="stop-color:#c84e4e;stop-opacity:0;"
         offset="1"
         id="stop3817" />
    </linearGradient>
    <radialGradient
       inkscape:collect="always"
       xlink:href="#linearGradient3813"
       id="radialGradient3819"
       cx="13"
       cy="13"
       fx="13"
       fy="13"
       r="13"
       gradientUnits="userSpaceOnUse" />
  </defs>
  <sodipodi:namedview
     id="base"
     pagecolor="#ffffff"
     bordercolor="#666666"
     borderopacity="1.0"
     inkscape:pageopacity="0.0"
     inkscape:pageshadow="2"
     inkscape:zoom="11.2"
     inkscape:cx="2.9361605"
     inkscape:cy="12.536019"
     inkscape:document-units="px"
     inkscape:current-layer="layer1"
     showgrid="false"
     inkscape:window-width="1680"
     inkscape:window-height="1023"
     inkscape:window-x="0"
     inkscape:window-y="27"
     inkscape:window-maximized="1" />
  <metadata
     id="metadata7">
    <rdf:RDF>
      <cc:Work
         rdf:about="">
        <dc:format>image/svg+xml</dc:format>
        <dc:type
           rdf:resource="http://purl.org/dc/dcmitype/StillImage" />
        <dc:title></dc:title>
      </cc:Work>
    </rdf:RDF>
  </metadata>
  <g
     inkscape:label="Layer 1"
     inkscape:groupmode="layer"
     id="layer1"
     transform="translate(0,-1026.3622)">
    <path
       style="fill:url(#radialGradient3819);fill-opacity:1;fill-rule:nonzero;stroke:none;opacity:1"
       d="M 13 0 C 5.8202983 1.1842379e-15 0 5.8202982 0 13 C 1.1842379e-15 20.179702 5.8202983 26 13 26 C 20.179702 26 26 20.179702 26 13 C 26 5.8202982 20.179702 -3.3254649e-15 13 0 z M 13 8 C 15.761424 8 18 10.238576 18 13 C 18 15.761424 15.761424 18 13 18 C 10.238576 18 8 15.761424 8 13 C 8 10.238576 10.238576 8 13 8 z "
       id="path3030"
       transform="translate(0,1026.3622)" />
    <path
       style="fill:#c84e4e;fill-opacity:1;fill-rule:nonzero;stroke:none"
       d="m 13,1034.3622 c -2.761424,0 -5,2.2386 -5,5 0,2.7614 2.238576,5 5,5 2.761424,0 5,-2.2386 5,-5 0,-2.7614 -2.238576,-5 -5,-5 z m -3.5,4 7,0 0,2 -7,0 0,-2 z"
       id="path3821"
       inkscape:connector-curvature="0" />
  </g>
</svg>
