<svg xmlns="http://www.w3.org/2000/svg" width="26" height="26">
 <path d="M 13 8 C 10.238576 8 8 10.238576 8 13 C 8 15.761424 10.238576 18 13 18 C 15.761424 18 18 15.761424 18 13 C 18 10.238576 15.761424 8 13 8 z M 13 9.5 C 14.932997 9.5 16.5 11.067003 16.5 13 C 16.5 14.932997 14.932997 16.5 13 16.5 C 11.067003 16.5 9.5 14.932997 9.5 13 C 9.5 11.067003 11.067003 9.5 13 9.5 z " fill="#c84e4e"/>
 <path d="m 13,5 c -4.418278,0 -8,3.581722 -8,8 0,4.418278 3.581722,8 8,8 4.418278,0 8,-3.581722 8,-8 0,-4.418278 -3.581722,-8 -8,-8 z m 0,1.5 c 3.589851,0 6.5,2.910149 6.5,6.5 0,3.589851 -2.910149,6.5 -6.5,6.5 C 9.410149,19.5 6.5,16.589851 6.5,13 6.5,9.410149 9.410149,6.5 13,6.5 z" fill="#c84e4e"/>
</svg>
