<svg xmlns="http://www.w3.org/2000/svg" width="26" height="26">
 <g transform="translate(0,-1026.3622)">
  <path d="m 18,13 c 0,2.761424 -2.238576,5 -5,5 -2.761424,0 -5,-2.238576 -5,-5 0,-2.761424 2.238576,-5 5,-5 2.761424,0 5,2.238576 5,5 z" transform="translate(0,1026.3622)" fill="#6bc260"/>
  <path d="m 13,1031.3622 c -4.4182781,0 -8.0000001,3.5817 -8.0000001,8 0,4.4183 3.581722,8 8.0000001,8 4.418278,0 8,-3.5817 8,-8 0,-4.4183 -3.581722,-8 -8,-8 z m 0,1.5 c 3.589851,0 6.5,2.9101 6.5,6.5 0,3.5899 -2.910149,6.5 -6.5,6.5 -3.5898511,0 -6.5000001,-2.9101 -6.5000001,-6.5 0,-3.5899 2.910149,-6.5 6.5000001,-6.5 z" fill="#6bc260"/>
 </g>
</svg>
