<svg xmlns="http://www.w3.org/2000/svg" width="128" height="128" version="1"><rect style="marker:none" width="80" height="60" x="24" y="60" rx="8" ry="8" opacity=".5"/><g fill="#deddda"><path d="M64 18c-13.255 0-24 10.745-24 24v16h48V42c0-13.255-10.745-24-24-24z" style="isolation:isolate"/><rect ry="8" rx="8" y="56" x="24" height="60" width="80" style="marker:none"/></g><path style="isolation:isolate" d="M63.6 26.99c-9.069.267-16.242 7.412-16.016 15.953.226 8.542 7.758 15.247 16.822 14.971a16.98 16.98 0 0 0 3.301-.434c.068 1.575-2.537 6.945-3.072 8.092-.525 1.123 12.181-9.044 14.912-18.293.515-1.745.915-3.51.869-5.314-.22-8.539-7.753-15.241-16.816-14.975zm.402 45.989c-4.237.001-7.671 3.524-7.67 7.869.002 3.079 1.755 5.875 4.486 7.154-4.116 1.196-7.107 4.596-7.107 8.652v3.692c0 1.957 2.062 3.535 4.623 3.535h11.338c2.56 0 4.621-1.578 4.621-3.535v-3.692c0-4.059-2.993-7.462-7.111-8.658 2.732-1.275 4.489-4.07 4.494-7.148.001-4.348-3.435-7.871-7.674-7.87z" fill="#333"/></svg>