<svg xmlns="http://www.w3.org/2000/svg" width="26" height="26">
 <defs/>
 <g transform="translate(0,-1026.3622)">
  <path d="m 13,1034.3622 c -2.761424,0 -5,2.2386 -5,5 0,2.7614 2.238576,5 5,5 2.761424,0 5,-2.2386 5,-5 0,-2.7614 -2.238576,-5 -5,-5 z m -3.5,4 7,0 0,2 -7,0 0,-2 z" style="fill:#c84e4e"/>
  <path d="m 13,1031.3622 c -4.418278,0 -8,3.5817 -8,8 0,4.4183 3.581722,8 8,8 4.418278,0 8,-3.5817 8,-8 0,-4.4183 -3.581722,-8 -8,-8 z m 0,1.5 c 3.589851,0 6.5,2.9101 6.5,6.5 0,3.5899 -2.910149,6.5 -6.5,6.5 -3.589851,0 -6.5,-2.9101 -6.5,-6.5 0,-3.5899 2.910149,-6.5 6.5,-6.5 z" style="fill:#c84e4e"/>
 </g>
</svg>
